<svg width="450" height="450" viewBox="0 0 450 450" fill="none" xmlns="http://www.w3.org/2000/svg">
<g clip-path="url(#clip0)">
<path d="M225.005 450C349.272 450 450.01 391.852 450.01 320.122C450.01 248.392 349.272 190.244 225.005 190.244C100.738 190.244 0 248.392 0 320.122C0 391.852 100.738 450 225.005 450Z" fill="#F5F5F5"/>
<path d="M263.517 391.523C286.366 391.523 304.889 380.832 304.889 367.643C304.889 354.454 286.366 343.762 263.517 343.762C240.668 343.762 222.146 354.454 222.146 367.643C222.146 380.832 240.668 391.523 263.517 391.523Z" fill="#E0E0E0"/>
<path d="M371.146 377.389C393.995 377.389 412.518 366.697 412.518 353.509C412.518 340.32 393.995 329.628 371.146 329.628C348.297 329.628 329.774 340.32 329.774 353.509C329.774 366.697 348.297 377.389 371.146 377.389Z" fill="#E0E0E0"/>
<path d="M144.851 427.339C167.7 427.339 186.223 416.647 186.223 403.459C186.223 390.27 167.7 379.578 144.851 379.578C122.002 379.578 103.479 390.27 103.479 403.459C103.479 416.647 122.002 427.339 144.851 427.339Z" fill="#E0E0E0"/>
<path d="M77.0452 324.92C77.0452 324.92 75.9654 299.67 65.3775 285.616C54.7896 271.561 41.8122 269.542 35.3835 273.501C30.6845 276.379 31.3143 284.936 39.4427 290.494C47.5711 296.052 63.2379 310.296 65.6875 319.582L77.0452 324.92Z" fill="#37474F"/>
<path d="M70.0467 321.241C69.8752 321.229 69.7155 321.149 69.6015 321.021C69.4876 320.892 69.4285 320.723 69.4368 320.552C70.5266 297.641 50.4406 283.357 44.9717 280.788C44.8148 280.714 44.6932 280.581 44.6333 280.418C44.5735 280.256 44.5801 280.076 44.6518 279.918C44.7276 279.76 44.8621 279.639 45.0265 279.579C45.1909 279.519 45.3722 279.526 45.5316 279.598C51.1405 282.257 71.8663 296.981 70.7466 320.582C70.7362 320.755 70.658 320.917 70.5289 321.033C70.3998 321.149 70.2301 321.21 70.0567 321.201L70.0467 321.241Z" fill="white"/>
<path d="M72.0457 316.943C70.6022 316.923 69.2143 316.384 68.1365 315.424C66.9068 314.074 67.0067 312.005 66.4369 310.266C65.507 307.407 62.6876 305.468 59.7482 304.858C56.7678 304.393 53.7213 304.598 50.83 305.458C44.9312 306.907 39.2623 303.279 33.3535 303.708C31.2215 303.777 29.1481 304.423 27.3547 305.578C26.4701 306.163 25.7454 306.959 25.2461 307.895C24.7469 308.83 24.4888 309.875 24.4952 310.936C24.6979 312.691 25.5722 314.299 26.9348 315.424C28.3011 316.546 29.8065 317.486 31.4139 318.223L36.6028 320.872C37.4998 321.27 38.3269 321.81 39.0523 322.471C39.7379 323.205 40.2549 324.08 40.5675 325.035C40.88 325.99 40.9805 327.001 40.862 327.999C40.462 329.998 38.8624 331.517 38.3525 333.477C37.7226 336.046 39.2923 338.794 41.5518 340.184C43.8987 341.454 46.5778 341.977 49.2303 341.683C51.8798 341.533 54.4992 341.004 57.1487 340.954C58.9413 340.825 60.7328 341.218 62.3077 342.083C64.0862 343.371 65.3676 345.231 65.937 347.351C66.2804 348.711 66.8264 350.012 67.5566 351.209C68.457 352.347 69.6695 353.198 71.0459 353.658C73.708 354.638 76.6322 354.638 79.2943 353.658C81.4838 352.819 82.5536 350.35 83.3735 348.211C84.1927 345.971 84.5827 343.597 84.5232 341.213C84.3973 335.086 83.0122 329.05 80.4541 323.481C79.2243 320.922 77.4547 318.363 74.7352 317.483C73.8545 317.232 72.9551 317.051 72.0457 316.943V316.943Z" fill="#455A64"/>
<path d="M77.7247 344.412C77.6038 344.413 77.4859 344.375 77.3873 344.305C77.2887 344.236 77.2144 344.137 77.1748 344.022C71.006 326.34 41.8219 310.956 31.184 309.186C31.1085 309.174 31.0362 309.147 30.9712 309.106C30.9062 309.066 30.8499 309.013 30.8053 308.951C30.7607 308.889 30.7289 308.818 30.7115 308.744C30.6941 308.669 30.6916 308.592 30.7041 308.517C30.7166 308.441 30.7438 308.369 30.7842 308.304C30.8246 308.239 30.8774 308.183 30.9396 308.138C31.0018 308.094 31.0722 308.062 31.1467 308.044C31.2212 308.027 31.2985 308.024 31.3739 308.037C42.2518 309.836 72.0158 325.56 78.3646 343.633C78.3913 343.705 78.4032 343.783 78.3995 343.86C78.3958 343.938 78.3766 344.014 78.3431 344.084C78.3095 344.153 78.2623 344.216 78.2041 344.267C78.146 344.319 78.0782 344.358 78.0046 344.382C77.9148 344.413 77.8191 344.424 77.7247 344.412V344.412Z" fill="white"/>
<path d="M51.49 334.716C51.3783 334.707 51.2717 334.665 51.1831 334.597C51.0945 334.528 51.0276 334.436 50.9906 334.33C50.9535 334.224 50.948 334.11 50.9745 334.001C51.001 333.892 51.0585 333.793 51.1401 333.716C55.912 330.416 61.5552 328.604 67.3568 328.509V328.509C67.4988 328.527 67.6291 328.597 67.7236 328.704C67.818 328.812 67.8701 328.95 67.8701 329.093C67.8701 329.236 67.818 329.375 67.7236 329.482C67.6291 329.59 67.4988 329.659 67.3568 329.678C61.8074 329.812 56.4153 331.548 51.8299 334.676C51.7229 334.722 51.6048 334.736 51.49 334.716V334.716Z" fill="white"/>
<path d="M78.0434 358.087C77.4146 357.659 76.8952 357.09 76.527 356.425C76.1588 355.76 75.9522 355.018 75.9238 354.258V145.952C75.9674 145.169 76.1946 144.407 76.5871 143.728C76.9796 143.049 77.5265 142.472 78.1834 142.043L323.294 0.549834C323.946 0.139998 324.697 -0.0843656 325.466 -0.0990801C326.235 -0.113795 326.994 0.0816972 327.661 0.466331C328.327 0.850965 328.876 1.41016 329.249 2.08366C329.621 2.75716 329.802 3.51943 329.773 4.28834V212.605C329.729 213.388 329.502 214.15 329.11 214.829C328.717 215.508 328.17 216.085 327.513 216.513L82.4025 358.007C81.7326 358.359 80.9894 358.55 80.2325 358.564C79.4755 358.578 78.7258 358.415 78.0434 358.087V358.087Z" fill="#455A64"/>
<path d="M81.9736 358.197H81.8836C81.8152 358.238 81.7411 358.268 81.6637 358.287H81.4937C81.3933 358.322 81.2894 358.345 81.1838 358.357C81.1167 358.384 81.0459 358.401 80.9738 358.407L80.6339 358.457C79.7417 358.578 78.834 358.421 78.0344 358.007C77.4065 357.582 76.8882 357.014 76.5215 356.351C76.1549 355.687 75.9504 354.946 75.9248 354.189V172.651L80.164 175.1V356.698C80.164 357.697 80.6739 358.317 81.4137 358.317C81.5131 358.332 81.6142 358.332 81.7136 358.317C81.8059 358.29 81.8936 358.25 81.9736 358.197V358.197Z" fill="#27DEBF"/>
<path opacity="0.81" d="M81.9736 358.197H81.8836C81.8152 358.238 81.7411 358.268 81.6637 358.287H81.4937C81.3933 358.322 81.2894 358.345 81.1838 358.357C81.1167 358.384 81.0459 358.401 80.9738 358.407L80.6339 358.457C79.7417 358.578 78.834 358.421 78.0344 358.007C77.4065 357.582 76.8882 357.014 76.5215 356.351C76.1549 355.687 75.9504 354.946 75.9248 354.189V172.651L80.164 175.1V356.698C80.164 357.697 80.6739 358.317 81.4137 358.317C81.5131 358.332 81.6142 358.332 81.7136 358.317C81.8059 358.29 81.8936 358.25 81.9736 358.197V358.197Z" fill="#E0E0E0"/>
<path d="M80.1542 175.11L75.915 172.661V212.995L80.1542 215.464V175.11Z" fill="#27DEBF"/>
<path opacity="0.15" d="M80.1542 175.11L75.915 172.661V212.995L80.1542 215.464V175.11Z" fill="black"/>
<path d="M80.8039 146.172C80.4038 146.845 80.1802 147.608 80.154 148.391V175.1L75.9149 172.651V145.952C75.9099 145.862 75.9099 145.772 75.9149 145.682C75.9342 145.494 75.9643 145.307 76.0048 145.122C76.1294 144.633 76.3177 144.163 76.5647 143.723L80.8039 146.172Z" fill="#263238"/>
<path d="M329.774 4.2982V16.3534L150.1 120.062C148.861 120.782 147.851 120.192 147.851 118.762V114.194C147.851 112.765 146.851 112.195 145.591 112.895L90.8722 144.492C90.2152 144.921 89.6684 145.498 89.2759 146.177C88.8833 146.856 88.6561 147.618 88.6126 148.401V152.959C88.5702 153.741 88.3445 154.502 87.9538 155.181C87.563 155.86 87.0181 156.438 86.3631 156.867L80.1543 160.486V148.491C80.1967 147.708 80.4224 146.947 80.8131 146.268C81.2039 145.589 81.7488 145.012 82.4038 144.582L327.525 2.99872C328.765 2.27901 329.774 2.85878 329.774 4.2982Z" fill="#37474F"/>
<path d="M329.784 212.615C329.739 213.396 329.511 214.156 329.119 214.833C328.727 215.51 328.18 216.086 327.525 216.513L82.4038 358.007C81.1641 358.717 80.1543 358.137 80.1543 356.697V160.486L86.3631 156.907C87.6028 156.188 89.6224 145.252 90.8722 144.532L144.671 113.475C145.921 112.755 148.861 120.832 150.1 120.112L329.774 16.3535V212.615H329.784Z" fill="#27DEBF"/>
<path opacity="0.9" d="M329.784 212.615C329.739 213.396 329.511 214.156 329.119 214.833C328.727 215.51 328.18 216.086 327.525 216.513L82.4038 358.007C81.1641 358.717 80.1543 358.137 80.1543 356.697V160.486L86.3631 156.907C87.6028 156.188 89.6224 145.252 90.8722 144.532L144.671 113.475C145.921 112.755 148.861 120.832 150.1 120.112L329.774 16.3535V212.615H329.784Z" fill="white"/>
<g opacity="0.4">
<path opacity="0.4" d="M328.775 18.0828V212.615C328.726 213.215 328.543 213.796 328.238 214.316C327.933 214.835 327.515 215.279 327.015 215.614L81.9039 357.137C81.7527 357.239 81.5763 357.298 81.394 357.307C81.1641 357.307 81.1541 356.807 81.1541 356.697V161.016L86.863 157.717C87.7428 157.207 88.3027 155.458 89.5624 150.96C90.0198 149.022 90.6489 147.128 91.442 145.302L144.801 114.504C145.44 115.375 146.015 116.29 146.521 117.243C147.971 119.782 148.771 121.102 149.93 121.102C150.164 121.101 150.394 121.043 150.6 120.932L328.775 18.0828ZM329.774 16.3535L150.1 120.062C150.045 120.076 149.986 120.076 149.93 120.062C148.671 120.062 146.111 113.335 144.841 113.335C144.786 113.32 144.727 113.32 144.671 113.335L90.8722 144.492C89.6224 145.212 87.6028 156.148 86.3631 156.867L80.1543 160.486V356.697C80.1543 357.697 80.6642 358.307 81.394 358.307C81.7472 358.292 82.091 358.189 82.3938 358.007L327.525 216.513C328.18 216.086 328.727 215.51 329.119 214.833C329.511 214.156 329.739 213.396 329.784 212.615V16.3535H329.774Z" fill="#27DEBF"/>
</g>
<path d="M80.1543 175.11V215.464L329.774 71.3914V31.0176L80.1543 175.11Z" fill="#27DEBF"/>
<path d="M329.774 16.3535V31.0176L80.1543 175.1V160.486L84.7834 157.807C86.0231 157.087 86.443 155.988 87.0329 153.898L88.6126 148.441C89.1025 146.541 89.6124 145.252 90.8722 144.532L144.671 113.475C145.921 112.755 146.901 112.675 147.851 114.244L149.78 117.743C150.48 118.972 150.84 119.692 152.08 118.972L329.774 16.3535Z" fill="#F0F0F0"/>
<path d="M319.197 11.8552C320.766 10.9556 322.036 11.6853 322.036 13.4946C321.983 14.4797 321.698 15.4385 321.204 16.2929C320.711 17.1474 320.023 17.8736 319.197 18.4126C317.637 19.3122 316.367 18.5825 316.367 16.7733C316.421 15.7893 316.705 14.8318 317.197 13.9776C317.688 13.1235 318.373 12.3965 319.197 11.8552V11.8552Z" fill="#27DEBF"/>
<path d="M308.999 17.7429C310.558 16.8433 311.828 17.573 311.828 19.3823C311.774 20.3662 311.49 21.3237 310.999 22.1779C310.507 23.0321 309.822 23.759 308.999 24.3003C307.429 25.1999 306.159 24.4702 306.159 22.661C306.213 21.6758 306.498 20.7171 306.991 19.8626C307.484 19.0081 308.172 18.2819 308.999 17.7429V17.7429Z" fill="#27DEBF"/>
<path d="M298.77 23.6306C300.33 22.731 301.61 23.4607 301.61 25.27C301.554 26.2546 301.268 27.2124 300.775 28.0665C300.282 28.9206 299.595 29.6472 298.77 30.188C297.2 31.0976 295.931 30.3579 295.931 28.5486C295.984 27.5635 296.269 26.6048 296.762 25.7503C297.256 24.8958 297.944 24.1696 298.77 23.6306V23.6306Z" fill="#27DEBF"/>
<path opacity="0.5" d="M90.4922 161.486L86.9529 163.485L88.3026 160.896C88.356 160.798 88.384 160.688 88.384 160.576C88.384 160.464 88.356 160.354 88.3026 160.256C88.2027 160.136 88.0227 160.256 87.9027 160.446L85.9831 164.145C85.9789 164.191 85.9789 164.238 85.9831 164.284V164.284C85.9787 164.348 85.9787 164.411 85.9831 164.474C85.977 164.531 85.977 164.588 85.9831 164.644V164.644C85.9782 164.671 85.9782 164.698 85.9831 164.724V164.724L87.9027 166.204C87.9312 166.221 87.9641 166.231 87.9977 166.231C88.0313 166.231 88.0642 166.221 88.0927 166.204C88.1843 166.129 88.2564 166.033 88.3026 165.924C88.4026 165.684 88.3926 165.414 88.3026 165.324L86.9529 164.324L90.4922 162.325C90.5849 162.253 90.6594 162.161 90.7097 162.055C90.7601 161.949 90.7849 161.833 90.7821 161.715C90.7821 161.486 90.6522 161.406 90.4922 161.486Z" fill="#455A64"/>
<path opacity="0.5" d="M93.4509 159.786L96.9902 157.787L95.6405 156.787C95.5205 156.697 95.5105 156.428 95.6405 156.188C95.7705 155.948 95.9204 155.818 96.0404 155.908L97.96 157.387C97.9852 157.406 98.0057 157.429 98.02 157.457C98.02 157.457 98.02 157.457 98.02 157.457C98.0305 157.51 98.0305 157.564 98.02 157.617C98.0304 157.68 98.0304 157.744 98.02 157.807C98.02 157.807 98.02 157.807 98.02 157.857C98.0043 157.905 97.9842 157.952 97.96 157.997L96.0404 161.655C95.9988 161.745 95.933 161.821 95.8504 161.875C95.8224 161.903 95.7847 161.918 95.7455 161.918C95.7062 161.918 95.6685 161.903 95.6405 161.875C95.5843 161.778 95.5548 161.668 95.5548 161.556C95.5548 161.443 95.5843 161.333 95.6405 161.236L96.9902 158.637L93.4509 160.686C93.291 160.776 93.171 160.686 93.171 160.406C93.1647 160.288 93.1868 160.17 93.2355 160.062C93.2842 159.954 93.3581 159.86 93.4509 159.786Z" fill="#455A64"/>
<path opacity="0.5" d="M105.039 149.59C105.039 149.38 104.829 149.41 104.739 149.64L104.249 150.83C103.419 150.74 102.419 151.539 101.739 152.979C100.869 154.828 100.869 156.977 101.739 157.867C101.953 158.066 102.229 158.186 102.521 158.204C102.813 158.222 103.102 158.138 103.339 157.967C104.046 157.493 104.599 156.822 104.929 156.037C104.984 155.944 105.013 155.837 105.013 155.728C105.013 155.619 104.984 155.512 104.929 155.418C104.809 155.308 104.629 155.418 104.519 155.648C103.869 157.027 102.799 157.647 102.149 157.017C101.499 156.387 101.489 154.748 102.149 153.359C102.609 152.359 103.279 151.789 103.869 151.759L103.499 152.649C103.409 152.879 103.499 153.099 103.639 152.999L105.089 152.059C105.144 152.009 105.187 151.947 105.215 151.878C105.243 151.808 105.254 151.734 105.249 151.659L105.039 149.59Z" fill="#455A64"/>
<path opacity="0.5" d="M143.121 120.122L144.411 117.383C144.487 117.254 144.527 117.108 144.527 116.958C144.527 116.809 144.487 116.662 144.411 116.533C144.261 116.393 144.011 116.533 143.861 116.853L142.571 119.582L141.272 118.343C141.122 118.193 140.872 118.343 140.722 118.663C140.646 118.791 140.606 118.938 140.606 119.087C140.606 119.237 140.646 119.383 140.722 119.512L142.012 120.752L140.722 123.501C140.646 123.629 140.606 123.776 140.606 123.925C140.606 124.075 140.646 124.221 140.722 124.35C140.761 124.383 140.811 124.401 140.862 124.401C140.913 124.401 140.962 124.383 141.002 124.35C141.126 124.273 141.221 124.157 141.272 124.02L142.571 121.282L143.861 122.531C143.899 122.563 143.947 122.58 143.996 122.58C144.046 122.58 144.093 122.563 144.131 122.531C144.256 122.452 144.353 122.337 144.411 122.201C144.487 122.072 144.527 121.926 144.527 121.776C144.527 121.627 144.487 121.48 144.411 121.351L143.121 120.122Z" fill="#455A64"/>
<path d="M109.768 152.949V148.391C109.814 147.608 110.043 146.848 110.437 146.171C110.832 145.494 111.38 144.919 112.037 144.492L314.846 27.539C316.096 26.8193 317.106 27.3991 317.106 28.8385V33.3367C317.063 34.1197 316.835 34.8815 316.443 35.5605C316.05 36.2395 315.503 36.8166 314.846 37.2451L112.037 154.258C110.777 154.978 109.768 154.388 109.768 152.949Z" fill="white"/>
<path d="M311.757 37.535C311.705 37.5455 311.65 37.5455 311.597 37.535C311.492 37.4821 311.406 37.3952 311.356 37.2883C311.305 37.1815 311.292 37.0607 311.317 36.9452L311.537 35.056L310.618 34.3962C310.552 34.3483 310.499 34.2849 310.465 34.2116C310.43 34.1383 310.414 34.0575 310.418 33.9764C310.418 33.8389 310.449 33.7032 310.508 33.5788C310.566 33.4544 310.652 33.3445 310.758 33.2567L312.077 32.2571C312.121 32.2172 312.153 32.165 312.167 32.1072L312.757 30.1679C312.791 30.0265 312.864 29.8976 312.969 29.7966C313.073 29.6956 313.204 29.6268 313.347 29.5982C313.436 29.5951 313.524 29.6181 313.601 29.6642C313.677 29.7104 313.738 29.7777 313.777 29.8581V29.8581L314.307 30.9976L315.507 30.5378C315.591 30.5017 315.684 30.4929 315.774 30.5126C315.864 30.5323 315.945 30.5796 316.006 30.6477C316.085 30.7681 316.127 30.9088 316.127 31.0526C316.127 31.1964 316.085 31.3371 316.006 31.4574L315.007 33.2567C314.996 33.3095 314.996 33.3638 315.007 33.4166L315.237 35.046C315.25 35.1793 315.234 35.314 315.189 35.4402C315.144 35.5665 315.072 35.6811 314.977 35.7757C314.923 35.8391 314.856 35.8887 314.779 35.92C314.702 35.9514 314.619 35.9636 314.537 35.9556L313.347 35.8057L312.197 37.3451C312.142 37.4062 312.074 37.4548 311.998 37.4876C311.922 37.5203 311.84 37.5365 311.757 37.535ZM310.997 33.8665L311.917 34.5262C311.995 34.5908 312.053 34.675 312.086 34.77C312.12 34.865 312.127 34.9672 312.107 35.066L311.997 36.6254L312.997 35.3659C313.054 35.2847 313.131 35.2192 313.22 35.1755C313.309 35.1318 313.408 35.1114 313.507 35.116L314.697 35.2659C314.697 35.2659 314.747 35.106 314.697 35.026L314.467 33.3966C314.451 33.2163 314.489 33.0353 314.577 32.8769L315.577 31.0776L314.477 31.4974C314.424 31.5204 314.368 31.5326 314.311 31.5334C314.253 31.5343 314.197 31.5237 314.143 31.5023C314.09 31.4808 314.042 31.4491 314.001 31.4087C313.961 31.3684 313.929 31.3204 313.907 31.2675L313.417 30.2679L312.827 32.2071C312.778 32.3854 312.673 32.5432 312.527 32.6569L311.207 33.6565C311.114 33.6986 311.04 33.7733 310.997 33.8665V33.8665Z" fill="#E0E0E0"/>
<g opacity="0.5">
<path opacity="0.5" d="M319.746 26.9193C319.573 26.9211 319.404 26.8652 319.266 26.7605C319.128 26.6558 319.029 26.5081 318.984 26.3409C318.94 26.1737 318.952 25.9963 319.019 25.8368C319.087 25.6773 319.205 25.5447 319.356 25.4599L325.695 21.8014C325.783 21.7495 325.881 21.7156 325.983 21.7016C326.085 21.6876 326.188 21.6938 326.287 21.7198C326.387 21.7458 326.48 21.7911 326.562 21.8531C326.644 21.9151 326.713 21.9927 326.764 22.0813C326.816 22.1699 326.85 22.2678 326.864 22.3695C326.878 22.4712 326.872 22.5747 326.846 22.674C326.82 22.7733 326.775 22.8666 326.713 22.9484C326.651 23.0302 326.573 23.099 326.484 23.1508L320.136 26.8194C320.017 26.8862 319.882 26.9207 319.746 26.9193V26.9193Z" fill="#455A64"/>
<path opacity="0.5" d="M319.746 30.5878C319.609 30.5876 319.474 30.5515 319.354 30.4831C319.235 30.4147 319.136 30.3164 319.066 30.1979C319.015 30.1088 318.981 30.0103 318.968 29.9081C318.954 29.806 318.961 29.7021 318.988 29.6027C319.015 29.5032 319.061 29.4101 319.125 29.3287C319.188 29.2473 319.267 29.1792 319.356 29.1284L325.695 25.4598C325.873 25.3778 326.076 25.3653 326.263 25.4246C326.451 25.4839 326.609 25.6109 326.708 25.7807C326.806 25.9506 326.838 26.1511 326.797 26.3431C326.756 26.5351 326.644 26.7049 326.485 26.8193L320.136 30.4778C320.018 30.5477 319.883 30.5856 319.746 30.5878Z" fill="#455A64"/>
<path opacity="0.5" d="M319.745 34.2465C319.608 34.2463 319.473 34.2102 319.354 34.1418C319.235 34.0734 319.135 33.9751 319.066 33.8566C319.014 33.7683 318.981 33.6705 318.967 33.5691C318.954 33.4677 318.961 33.3647 318.988 33.266C319.015 33.1674 319.062 33.0751 319.125 32.9946C319.188 32.914 319.266 32.8469 319.356 32.7971L325.694 29.1285C325.783 29.0767 325.881 29.0428 325.983 29.0288C326.084 29.0148 326.188 29.021 326.287 29.0469C326.386 29.0729 326.48 29.1182 326.562 29.1803C326.643 29.2423 326.712 29.3198 326.764 29.4084C326.816 29.497 326.85 29.595 326.864 29.6967C326.878 29.7984 326.872 29.9018 326.846 30.0012C326.82 30.1005 326.774 30.1937 326.712 30.2755C326.65 30.3573 326.573 30.4261 326.484 30.478L320.135 34.1465C320.016 34.2134 319.882 34.2478 319.745 34.2465V34.2465Z" fill="#455A64"/>
</g>
<path d="M80.1542 160.446V175.11L75.915 172.661V158.007L80.1542 160.446Z" fill="#E0E0E0"/>
<path d="M251.487 101.515C251.39 101.572 251.299 101.583 251.214 101.548C251.141 101.506 251.104 101.422 251.104 101.295L251.141 101.084L255.528 84.92C255.613 84.5189 255.825 84.2191 256.165 84.0205L258.149 82.8607C258.465 82.6763 258.677 82.7278 258.787 83.0154L263.174 94.0512C263.186 94.0863 263.192 94.146 263.192 94.2304C263.192 94.3569 263.155 94.4836 263.083 94.6105C263.01 94.7374 262.925 94.8292 262.828 94.886L261.244 95.8117C261.086 95.9039 260.965 95.9326 260.88 95.898C260.795 95.8633 260.74 95.8038 260.716 95.7196L259.861 93.6473L254.454 96.8074L253.598 99.8799C253.501 100.204 253.325 100.44 253.07 100.589L251.487 101.515ZM259.223 91.5949L257.148 86.2924L255.091 94.0102L259.223 91.5949ZM269.916 90.954C268.666 91.6846 267.695 91.7531 267.003 91.1593V91.9395C267.003 92.0801 266.961 92.2244 266.876 92.3724C266.803 92.5134 266.7 92.6229 266.566 92.7009L265.128 93.5415C265.007 93.6124 264.904 93.6235 264.819 93.5748C264.734 93.526 264.691 93.4314 264.691 93.2908V79.3322C264.691 79.1776 264.734 79.0333 264.819 78.8993C264.904 78.7512 265.007 78.6418 265.128 78.5708L266.675 77.6664C266.809 77.5884 266.912 77.5773 266.985 77.6331C267.07 77.6678 267.112 77.7625 267.112 77.9171V82.5981C267.804 81.266 268.738 80.2559 269.916 79.5678C271.141 78.8514 272.082 78.7655 272.737 79.3102C273.393 79.855 273.745 80.8511 273.793 82.2987C273.805 82.4603 273.811 82.6817 273.811 82.9628C273.811 83.258 273.805 83.4935 273.793 83.6693C273.745 85.2158 273.393 86.6374 272.737 87.9342C272.082 89.2309 271.141 90.2375 269.916 90.954ZM269.242 89.0915C270.553 88.3254 271.251 86.9828 271.336 85.0635C271.348 84.9159 271.354 84.7015 271.354 84.4203C271.354 84.1392 271.348 83.9319 271.336 83.7984C271.251 81.9785 270.553 81.4516 269.242 82.2177C268.563 82.6149 268.041 83.1729 267.677 83.8918C267.325 84.5895 267.137 85.2969 267.112 86.0139L267.094 86.8258L267.112 87.6375C267.149 88.3753 267.337 88.9049 267.677 89.2264C268.016 89.5479 268.538 89.5029 269.242 89.0915ZM280.024 85.0457C278.604 85.8756 277.506 86.0959 276.729 85.7064C275.952 85.3029 275.534 84.3809 275.473 82.9404L275.455 82.0233L275.473 81.0849C275.534 79.5875 275.958 78.1795 276.747 76.861C277.536 75.5424 278.628 74.4753 280.024 73.6595C281.42 72.8438 282.512 72.6341 283.301 73.0305C284.09 73.4269 284.514 74.3384 284.575 75.7648C284.587 75.9264 284.593 76.2321 284.593 76.6819C284.593 77.1318 284.587 77.4446 284.575 77.6203C284.514 79.1318 284.096 80.5432 283.319 81.8547C282.542 83.1521 281.444 84.2158 280.024 85.0457ZM280.024 82.9582C280.667 82.5823 281.165 82.0595 281.517 81.3899C281.869 80.7063 282.063 79.897 282.099 78.962C282.111 78.8143 282.117 78.5367 282.117 78.129C282.117 77.7213 282.111 77.4508 282.099 77.3173C282.063 76.4249 281.869 75.8496 281.517 75.5914C281.165 75.3192 280.667 75.3711 280.024 75.747C279.381 76.123 278.883 76.6528 278.531 77.3364C278.179 78.006 277.985 78.8083 277.949 79.7433L277.931 80.5762L277.949 81.3879C277.985 82.2804 278.179 82.8627 278.531 83.1349C278.883 83.3931 279.381 83.3342 280.024 82.9582ZM290.123 79.1426C289.007 79.7952 288.127 79.8877 287.484 79.4203C286.841 78.9387 286.519 77.967 286.519 76.5051V70.5801C286.519 70.4395 286.562 70.2952 286.646 70.1471C286.731 69.9991 286.835 69.8896 286.956 69.8187L288.558 68.8823C288.691 68.8043 288.795 68.7932 288.867 68.849C288.952 68.8837 288.995 68.9784 288.995 69.133V74.9315C288.995 76.6746 289.656 77.1595 290.979 76.3863C291.61 76.0175 292.108 75.4947 292.472 74.818C292.848 74.1342 293.036 73.3847 293.036 72.5694V66.7709C293.036 66.6303 293.079 66.486 293.164 66.338C293.248 66.1899 293.352 66.0804 293.473 66.0095L295.075 65.0731C295.208 64.9951 295.312 64.984 295.384 65.0399C295.469 65.0745 295.512 65.1692 295.512 65.3238V75.2762C295.512 75.4167 295.469 75.561 295.384 75.7091C295.312 75.8501 295.208 75.9595 295.075 76.0376L293.6 76.8994C293.479 76.9704 293.376 76.9815 293.291 76.9327C293.206 76.884 293.164 76.7893 293.164 76.6487V75.7842C292.484 77.2357 291.471 78.3552 290.123 79.1426ZM302.194 71.8763C301.09 72.5218 300.259 72.6773 299.7 72.343C299.154 71.9874 298.881 71.163 298.881 69.8698V65.0834L297.443 65.924C297.322 65.9949 297.219 66.006 297.134 65.9573C297.049 65.8945 297.006 65.7928 297.006 65.6522V64.4503C297.006 64.3098 297.049 64.1655 297.134 64.0174C297.219 63.8693 297.322 63.7599 297.443 63.6889L298.881 62.8483V59.3482C298.881 59.1935 298.924 59.0492 299.009 58.9152C299.094 58.7672 299.197 58.6577 299.318 58.5867L300.793 57.7249C300.926 57.6469 301.029 57.6358 301.102 57.6916C301.187 57.7263 301.23 57.821 301.23 57.9756V61.4758L303.505 60.1457C303.639 60.0677 303.742 60.0566 303.815 60.1125C303.899 60.1471 303.942 60.2418 303.942 60.3964V61.5983C303.942 61.7529 303.899 61.9043 303.815 62.0523C303.73 62.2004 303.626 62.3099 303.505 62.3808L301.23 63.7108V68.2864C301.23 68.8908 301.321 69.2945 301.503 69.4973C301.685 69.7002 301.988 69.6775 302.413 69.4292L303.669 68.695C303.79 68.6241 303.893 68.613 303.978 68.6617C304.063 68.7105 304.106 68.8051 304.106 68.9457V70.253C304.106 70.3936 304.063 70.5379 303.978 70.6859C303.906 70.8269 303.802 70.9364 303.669 71.0144L302.194 71.8763ZM313.394 65.541C312.277 66.1936 311.398 66.2862 310.754 65.8187C310.111 65.3372 309.79 64.3655 309.79 62.9035V56.9785C309.79 56.838 309.832 56.6936 309.917 56.5456C310.002 56.3975 310.105 56.288 310.226 56.2171L311.828 55.2808C311.962 55.2027 312.065 55.1917 312.138 55.2475C312.223 55.2822 312.265 55.3768 312.265 55.5315V61.33C312.265 63.073 312.927 63.558 314.249 62.7848C314.881 62.4159 315.378 61.8931 315.742 61.2165C316.118 60.5327 316.307 59.7831 316.307 58.9678V53.1693C316.307 53.0288 316.349 52.8845 316.434 52.7364C316.519 52.5884 316.622 52.4789 316.743 52.4079L318.345 51.4716C318.479 51.3936 318.582 51.3825 318.655 51.4383C318.74 51.473 318.782 51.5677 318.782 51.7223V61.6746C318.782 61.8152 318.74 61.9595 318.655 62.1075C318.582 62.2485 318.479 62.358 318.345 62.436L316.871 63.2979C316.749 63.3688 316.646 63.3799 316.561 63.3312C316.476 63.2824 316.434 63.1878 316.434 63.0472V62.1827C315.754 63.6342 314.741 64.7536 313.394 65.541ZM324.773 58.8899C323.863 59.4219 323.098 59.7142 322.479 59.7667C321.86 59.8051 321.399 59.7022 321.096 59.4578C320.805 59.1923 320.659 58.9049 320.659 58.5956C320.659 58.4551 320.701 58.3178 320.786 58.1838C320.871 58.0498 320.968 57.9509 321.078 57.887L322.516 57.0465C322.625 56.9826 322.716 56.9786 322.789 57.0345C322.837 57.0483 322.965 57.1003 323.171 57.1906C323.377 57.2949 323.62 57.3287 323.899 57.2921C324.178 57.2555 324.488 57.1378 324.828 56.9392C325.313 56.6555 325.714 56.3089 326.029 55.8996C326.345 55.4902 326.502 55.0888 326.502 54.6952C326.502 54.4 326.43 54.2036 326.284 54.106C326.15 54.0013 325.902 53.985 325.538 54.0572C325.174 54.1154 324.633 54.2694 323.917 54.5193C322.886 54.8692 322.121 54.9295 321.624 54.7002C321.138 54.4638 320.896 53.9169 320.896 53.0594C320.896 52.4972 321.041 51.8849 321.333 51.2227C321.624 50.5464 322.055 49.8869 322.625 49.2443C323.208 48.5805 323.899 48.0145 324.7 47.5463C325.513 47.0711 326.217 46.8143 326.812 46.7759C327.407 46.7236 327.856 46.8196 328.159 47.0639C328.475 47.2872 328.632 47.5604 328.632 47.8837C328.632 48.0102 328.59 48.1475 328.505 48.2956C328.432 48.4225 328.341 48.5179 328.232 48.5817L326.885 49.3691C326.788 49.4258 326.684 49.4369 326.575 49.4023C326.49 49.3817 326.357 49.3262 326.175 49.2358C325.993 49.1454 325.78 49.1149 325.538 49.1443C325.295 49.1737 325.01 49.2842 324.682 49.4757C324.233 49.7382 323.881 50.0564 323.626 50.4302C323.383 50.797 323.262 51.1631 323.262 51.5286C323.262 51.7957 323.323 51.9781 323.444 52.0759C323.566 52.1736 323.802 52.197 324.154 52.1459C324.506 52.0948 325.034 51.9409 325.738 51.6841C326.903 51.2702 327.734 51.199 328.232 51.4704C328.742 51.7348 328.996 52.2746 328.996 53.0899C328.996 54.0739 328.626 55.0915 327.886 56.1427C327.146 57.1939 326.108 58.1096 324.773 58.8899Z" fill="#455A64"/>
<path opacity="0.1" d="M90.9822 224.98L160.018 185.126V297.651L90.7822 337.385L90.9822 224.98Z" fill="#27DEBF"/>
<path opacity="0.15" d="M175.235 178.409L258.518 130.338C260.198 129.338 261.518 130.098 261.518 131.967C261.455 133.001 261.151 134.007 260.63 134.902C260.11 135.798 259.386 136.559 258.518 137.125L175.225 185.736C173.555 186.735 172.226 185.936 172.226 184.006V183.657C172.282 182.607 172.583 181.586 173.106 180.675C173.629 179.763 174.358 178.987 175.235 178.409V178.409Z" fill="#27DEBF"/>
<path opacity="0.1" d="M174.365 192.973L312.177 113.425C313.377 112.735 314.347 113.225 314.347 114.514C314.294 115.243 314.07 115.948 313.693 116.573C313.316 117.199 312.796 117.726 312.177 118.113L174.365 197.661C173.175 198.351 172.205 197.861 172.205 196.571C172.258 195.844 172.48 195.14 172.856 194.515C173.231 193.89 173.748 193.361 174.365 192.973V192.973Z" fill="#27DEBF"/>
<path opacity="0.1" d="M174.365 202.389L312.177 122.841C313.377 122.151 314.347 122.641 314.347 123.93C314.294 124.659 314.07 125.364 313.693 125.989C313.316 126.615 312.796 127.142 312.177 127.529L174.365 207.077C173.175 207.767 172.205 207.277 172.205 205.978C172.259 205.252 172.483 204.55 172.858 203.926C173.233 203.303 173.749 202.777 174.365 202.389Z" fill="#27DEBF"/>
<path opacity="0.1" d="M174.365 211.795L312.177 132.247C313.377 131.558 314.347 132.047 314.347 133.347C314.292 134.073 314.067 134.777 313.691 135.4C313.314 136.024 312.795 136.55 312.177 136.935L174.365 216.464C173.175 217.153 172.205 216.663 172.205 215.364C172.264 214.642 172.489 213.945 172.864 213.325C173.239 212.706 173.753 212.182 174.365 211.795V211.795Z" fill="#27DEBF"/>
<path opacity="0.1" d="M174.365 221.211L312.177 141.663C313.377 140.974 314.347 141.463 314.347 142.753C314.294 143.481 314.07 144.187 313.693 144.812C313.316 145.437 312.796 145.965 312.177 146.351L174.365 225.9C173.175 226.589 172.205 226.1 172.205 224.81C172.258 224.083 172.48 223.378 172.856 222.753C173.231 222.128 173.748 221.6 174.365 221.211V221.211Z" fill="#27DEBF"/>
<path opacity="0.1" d="M174.365 230.628L270.525 174.65C271.715 173.961 272.685 174.45 272.685 175.75C272.631 176.475 272.407 177.178 272.032 177.801C271.657 178.424 271.141 178.951 270.525 179.338L174.365 235.316C173.175 236.006 172.205 235.516 172.205 234.216C172.259 233.491 172.483 232.789 172.858 232.165C173.233 231.542 173.749 231.015 174.365 230.628Z" fill="#27DEBF"/>
<path opacity="0.1" d="M174.365 249.45L312.177 169.902C313.377 169.212 314.347 169.702 314.347 170.992C314.294 171.72 314.07 172.425 313.693 173.051C313.316 173.676 312.796 174.203 312.177 174.59L174.365 254.138C173.175 254.828 172.205 254.338 172.205 253.049C172.258 252.322 172.48 251.617 172.856 250.992C173.231 250.367 173.748 249.839 174.365 249.45V249.45Z" fill="#27DEBF"/>
<path opacity="0.1" d="M174.365 258.867L312.177 179.318C313.377 178.629 314.347 179.118 314.347 180.408C314.294 181.136 314.07 181.842 313.693 182.467C313.316 183.092 312.796 183.62 312.177 184.006L174.365 263.555C173.175 264.244 172.205 263.755 172.205 262.455C172.259 261.73 172.483 261.027 172.858 260.404C173.233 259.781 173.749 259.254 174.365 258.867Z" fill="#27DEBF"/>
<path opacity="0.1" d="M174.365 268.273L312.177 188.725C313.377 188.035 314.347 188.525 314.347 189.824C314.292 190.551 314.067 191.254 313.691 191.877C313.314 192.501 312.795 193.027 312.177 193.413L174.365 272.971C173.175 273.661 172.205 273.171 172.205 271.871C172.259 271.145 172.483 270.441 172.858 269.816C173.233 269.191 173.749 268.662 174.365 268.273V268.273Z" fill="#27DEBF"/>
<path opacity="0.1" d="M174.365 277.689L225.015 248.141C226.205 247.451 227.175 247.941 227.175 249.24C227.121 249.966 226.897 250.668 226.522 251.292C226.147 251.915 225.631 252.441 225.015 252.829L174.375 282.377C173.186 283.067 172.216 282.577 172.216 281.288C172.267 280.561 172.489 279.857 172.862 279.232C173.235 278.607 173.75 278.079 174.365 277.689V277.689Z" fill="#27DEBF"/>
<path d="M358.528 223.66C365.857 199.89 372.986 184.226 365.717 179.378C358.958 180.638 355.929 183.986 354.489 192.903C352.98 202.249 349.84 215.284 348.011 222.801C346.429 229.083 344.166 235.173 341.262 240.964C340.824 241.765 340.115 242.386 339.262 242.713C337.003 243.603 335.923 244.712 334.083 246.072C332.634 247.071 331.574 247.211 331.644 247.641C331.763 248.123 332.066 248.54 332.488 248.802C332.91 249.063 333.418 249.149 333.903 249.04C334.99 248.835 336.047 248.5 337.053 248.041C336.188 250.231 334.842 252.199 333.113 253.798C329.564 256.797 330.114 259.726 335.803 260.066C337.803 260.186 342.572 258.327 346.961 250.86C348.445 248.076 349.751 245.202 350.87 242.253C353.929 234.596 357.059 228.459 358.528 223.66Z" fill="#FFA8A7"/>
<path d="M366.987 179.098C366.987 179.098 361.348 178.809 357.929 182.577C354.509 186.346 350.53 208.857 350.53 208.857C350.53 208.857 354.27 213.994 364.128 211.855L366.987 179.098Z" fill="#27DEBF"/>
<path opacity="0.3" d="M366.987 179.098C366.987 179.098 361.348 178.809 357.929 182.577C354.509 186.346 350.53 208.857 350.53 208.857C350.53 208.857 354.27 213.994 364.128 211.855L366.987 179.098Z" fill="black"/>
<path d="M393.392 338.804H385.823V352.299H393.392V338.804Z" fill="#FFA8A7"/>
<path d="M367.147 338.085L359.578 338.355L359.198 324.07L367.147 323.8V338.085Z" fill="#FFA8A7"/>
<path d="M394.461 221.961C394.461 229.488 393.351 290.064 393.351 290.064C393.521 292.233 395.471 296.232 395.051 304.548C394.481 315.844 393.711 345.532 393.711 345.532C392.413 346.201 390.978 346.564 389.518 346.595C388.058 346.627 386.609 346.324 385.283 345.712C385.283 345.712 378.124 304.578 376.775 293.373C375.585 283.607 373.575 250.7 373.575 250.7L369.476 288.955C370.35 293.072 370.666 297.288 370.416 301.49C370.056 306.667 367.627 333.647 367.627 333.647C366.318 334.418 364.851 334.88 363.337 335C361.823 335.119 360.302 334.893 358.888 334.336C358.888 334.336 354.579 293.713 354.489 288.955C354.389 283.537 357.009 221.871 357.009 221.871L394.461 221.961Z" fill="#37474F"/>
<path d="M385.823 348.411V347.281C385.093 347.611 383.413 354.278 380.414 357.157C378.024 359.416 374.765 362.035 373.935 364.564C373.105 367.093 378.474 368.652 380.704 368.243C383.293 367.763 387.792 365.864 388.912 364.094C390.032 362.325 390.572 359.736 391.491 358.447C392.411 357.157 394.491 355.718 395.011 354.218C395.291 353.399 395.011 351.599 394.581 350.08C394.151 348.561 393.851 347.151 393.391 347.281V348.141C392.33 349.021 390.991 349.495 389.612 349.48C388.502 349.51 385.813 349.28 385.823 348.411Z" fill="#263238"/>
<path d="M359.499 335.916C359.109 335.916 358.789 336.505 357.919 337.485C356.634 338.84 355.13 339.969 353.47 340.824C350.63 342.303 345.121 344.572 342.622 345.742C341.072 346.471 341.142 348.431 342.752 349.55C344.362 350.67 348.251 351.469 352.92 350.38C355.459 349.79 358.779 347.381 360.868 347.471C362.958 347.561 366.867 347.581 368.437 346.471C370.006 345.362 369.367 342.993 368.927 340.954C368.447 338.735 367.857 335.266 367.147 335.416V336.186C366.237 337.615 361.538 338.185 359.539 337.185L359.499 335.916Z" fill="#263238"/>
<path d="M373.575 250.71C369.636 249.424 366.035 247.272 363.037 244.412C363.037 244.412 365.037 248.411 371.115 252.069L369.826 286.235L373.575 250.71Z" fill="#263238"/>
<path d="M390.523 180.898C390.523 180.898 396.442 181.447 396.022 192.723L394.712 210.716V237.705C389.143 244.012 364.468 243.543 356.02 237.195C356.02 237.195 356.969 205.278 357.539 192.993C357.949 184.266 359.959 179.868 368.537 178.908L379.085 179.368L390.523 180.898Z" fill="#27DEBF"/>
<path opacity="0.3" d="M373.695 186.825L372.335 196.301L369.176 196.241L372.745 196.801L373.695 186.825Z" fill="black"/>
<path d="M381.593 155.488C381.655 158.539 380.503 161.489 378.39 163.691C376.278 165.894 373.377 167.167 370.326 167.233C364.097 167.233 359.328 161.965 359.048 155.498C358.558 144.032 364.097 143.752 370.326 143.752C373.375 143.818 376.274 145.09 378.387 147.291C380.499 149.491 381.652 152.439 381.593 155.488Z" fill="#263238"/>
<path d="M387.982 161.295C387.982 161.295 386.253 169.752 385.563 171.141C385.117 171.989 384.356 172.628 383.443 172.921L383.563 166.973L387.982 161.295Z" fill="#263238"/>
<path d="M385.843 149.18C385.843 149.18 387.083 148.871 388.403 150.93C389.533 152.689 389.793 156.647 388.013 161.296L384.764 161.685L385.843 149.18Z" fill="#263238"/>
<path d="M383.783 161.685C384.433 162.095 385.363 160.786 386.173 159.906C386.982 159.026 389.602 157.837 390.922 160.706C392.241 163.575 389.762 167.513 387.692 168.193C384.123 169.362 383.593 166.973 383.593 166.973L383.313 180.368C378.584 187.695 367.856 187.425 371.715 180.018V175.94C370.127 176.204 368.514 176.291 366.906 176.2C364.287 175.77 362.637 173.621 361.837 170.662C360.558 165.914 360.078 162.085 361.158 152.739C362.357 142.493 373.795 142.403 379.984 146.491C386.173 150.58 383.783 161.685 383.783 161.685Z" fill="#FFA8A7"/>
<path d="M383.374 177.369C382.274 179.62 380.694 181.602 378.745 183.177C377.088 184.4 375.167 185.215 373.136 185.556C374.811 186.691 376.184 188.218 377.135 190.004C378.325 192.603 386.653 185.436 386.573 180.348C386.573 180.348 385.273 175.24 383.474 174.92L383.374 177.369Z" fill="#263238"/>
<path d="M373.135 185.556C373.135 185.556 370.566 184.286 371.716 180.018V175.94L370.586 176.09C369.269 177.372 368.335 178.995 367.886 180.778C367.627 181.947 366.987 187.865 368.116 189.034C369.246 190.204 370.826 185.876 373.135 185.556Z" fill="#263238"/>
<path d="M379.405 150.49C379.697 150.426 380.001 150.443 380.284 150.54C381.284 150.98 381.464 153.998 381.634 154.868C382.204 157.797 382.684 162.765 383.784 162.785C384.114 162.785 385.363 160.636 386.173 159.866C387.303 158.797 385.843 149.14 385.843 149.14C386.141 148.307 386.198 147.406 386.007 146.541C385.816 145.676 385.385 144.883 384.764 144.252C382.764 141.933 379.545 141.413 376.635 141.254C373.206 141.064 369.726 141.324 366.347 140.574C365.286 140.279 364.207 140.049 363.118 139.884C363.072 139.865 363.023 139.854 362.973 139.854C362.923 139.854 362.874 139.865 362.828 139.884C362.718 139.974 362.738 140.144 362.768 140.284C362.98 141.296 363.337 142.273 363.828 143.183C361.816 143.024 359.83 142.631 357.909 142.013C357.798 141.979 357.68 141.979 357.569 142.013C357.339 142.083 357.299 142.383 357.319 142.623C357.449 145.042 358.599 148.701 360.568 150.12C362.314 151.263 364.341 151.903 366.427 151.969C371.726 152.169 374.985 151.05 379.405 150.49Z" fill="#263238"/>
<path d="M385.843 149.69L389.792 147.481C389.672 147.209 389.495 146.965 389.275 146.765C389.055 146.565 388.795 146.413 388.513 146.319C388.231 146.225 387.932 146.191 387.636 146.219C387.34 146.247 387.053 146.336 386.793 146.481C386.267 146.806 385.88 147.312 385.705 147.904C385.53 148.496 385.579 149.132 385.843 149.69Z" fill="#263238"/>
<path d="M371.726 175.94C371.726 175.94 377.574 174.71 379.624 173.58C380.838 172.913 381.824 171.896 382.453 170.662C382.149 171.903 381.601 173.071 380.844 174.1C379.354 176.099 371.726 177.559 371.726 177.559V175.94Z" fill="#F28F8F"/>
<path d="M373.136 160.166C373.157 160.391 373.243 160.606 373.384 160.783C373.525 160.96 373.714 161.093 373.929 161.165C374.144 161.237 374.375 161.245 374.594 161.188C374.813 161.131 375.011 161.012 375.164 160.845C375.317 160.678 375.418 160.47 375.454 160.247C375.491 160.023 375.463 159.794 375.372 159.587C375.281 159.379 375.132 159.203 374.943 159.078C374.753 158.954 374.532 158.887 374.306 158.886C374.144 158.892 373.985 158.929 373.838 158.996C373.691 159.064 373.56 159.16 373.451 159.279C373.342 159.399 373.258 159.539 373.203 159.691C373.149 159.843 373.126 160.005 373.136 160.166V160.166Z" fill="#263238"/>
<path d="M374.985 155.108L377.495 156.547C377.676 156.201 377.724 155.8 377.63 155.421C377.537 155.042 377.307 154.71 376.985 154.488C376.817 154.381 376.628 154.311 376.43 154.285C376.233 154.258 376.032 154.275 375.841 154.334C375.651 154.393 375.476 154.492 375.328 154.626C375.18 154.76 375.063 154.924 374.985 155.108V155.108Z" fill="#263238"/>
<path d="M372.256 168.603L369.576 169.602C369.629 169.786 369.719 169.957 369.841 170.105C369.963 170.253 370.114 170.374 370.284 170.461C370.455 170.548 370.642 170.6 370.833 170.612C371.024 170.624 371.216 170.597 371.396 170.532C371.752 170.373 372.037 170.088 372.196 169.732C372.354 169.376 372.376 168.974 372.256 168.603V168.603Z" fill="#F28F8F"/>
<path d="M362.367 156.178L364.657 154.338C364.554 154.177 364.418 154.04 364.257 153.935C364.097 153.831 363.916 153.762 363.727 153.732C363.538 153.703 363.345 153.714 363.16 153.765C362.976 153.816 362.805 153.906 362.657 154.028C362.352 154.287 362.153 154.65 362.1 155.047C362.046 155.444 362.141 155.847 362.367 156.178V156.178Z" fill="#263238"/>
<path d="M363.377 159.816C363.37 159.976 363.395 160.135 363.451 160.285C363.506 160.435 363.59 160.573 363.699 160.69C363.808 160.807 363.939 160.901 364.084 160.967C364.23 161.034 364.387 161.07 364.547 161.076C364.884 161.076 365.207 160.942 365.445 160.704C365.683 160.466 365.816 160.143 365.816 159.806C365.816 159.469 365.683 159.147 365.445 158.908C365.207 158.67 364.884 158.537 364.547 158.537C364.223 158.555 363.92 158.699 363.701 158.938C363.482 159.177 363.366 159.492 363.377 159.816V159.816Z" fill="#263238"/>
<path d="M369.656 158.836L369.516 166.243L365.307 165.284L369.656 158.836Z" fill="#F28F8F"/>
<path d="M402.04 166.283C403.73 164.044 407.149 169.012 408.729 172.441C410.308 175.87 410.338 177.809 409.038 179.168C407.739 180.528 405.289 179.708 402.84 176.459C400.39 173.211 401.07 167.933 402.04 166.283Z" fill="#27DEBF"/>
<path opacity="0.5" d="M402.04 166.283C403.73 164.044 407.149 169.012 408.729 172.441C410.308 175.87 410.338 177.809 409.038 179.168C407.739 180.528 405.289 179.708 402.84 176.459C400.39 173.211 401.07 167.933 402.04 166.283Z" fill="black"/>
<path d="M413.977 166.943C407.979 180.938 399.63 188.824 395.881 197.831C390.972 197.501 387.143 185.636 390.802 180.568C390.802 180.568 405.179 165.004 406.479 158.886C407.639 153.459 409.188 144.502 409.058 139.894C409.007 139.144 408.692 138.435 408.168 137.895C406.659 136.265 406.659 134.966 405.689 133.177C404.939 131.777 404.109 131.258 404.349 130.938C404.66 130.605 405.085 130.402 405.539 130.369C405.993 130.335 406.443 130.474 406.799 130.758C407.493 131.265 408.115 131.863 408.648 132.537C408.833 130.74 408.54 128.926 407.799 127.279C406.129 123.501 406.539 121.581 411.628 122.921C414.827 123.77 416.827 126.429 417.307 134.096C417.529 137.287 417.549 140.489 417.367 143.683C416.807 149.59 416.457 155.748 415.727 160.676C415.412 162.831 414.824 164.937 413.977 166.943V166.943Z" fill="#FFA8A7"/>
<path d="M389.302 180.738L401.979 166.244C401.979 166.244 400.47 169.772 403.769 174.92C407.068 180.068 409.028 179.168 409.028 179.168C409.028 179.168 401.539 190.094 399.54 193.753C397.54 197.411 395.45 200.5 395.45 200.5C395.229 200.927 394.885 201.278 394.463 201.507C394.041 201.737 393.56 201.835 393.081 201.789C391.221 201.789 386.292 193.533 389.302 180.738Z" fill="#27DEBF"/>
<path opacity="0.3" d="M389.302 180.738L401.979 166.244C401.979 166.244 400.47 169.772 403.769 174.92C407.068 180.068 409.028 179.168 409.028 179.168C409.028 179.168 401.539 190.094 399.54 193.753C397.54 197.411 395.45 200.5 395.45 200.5C395.229 200.927 394.885 201.278 394.463 201.507C394.041 201.737 393.56 201.835 393.081 201.789C391.221 201.789 386.292 193.533 389.302 180.738Z" fill="black"/>
<path d="M286.422 213.314L292.391 221.261L285.972 228.618L277.704 218.952L286.422 213.314Z" fill="#F28F8F"/>
<path d="M266.877 195.242C272.086 195.482 274.565 196.241 277.295 199.5C280.024 202.759 293.662 222.461 293.662 222.461C293.662 222.461 291.252 229.218 285.973 228.638L276.385 218.752L266.877 195.242Z" fill="#455A64"/>
<path d="M241.322 360.296C240.951 362.368 240.751 364.468 240.722 366.573C240.652 370.372 239.952 371.731 239.862 374.85C239.752 378.418 240.372 379.758 241.862 381.757C243.351 383.756 247.111 385.586 248.72 382.197C250.33 378.808 250.12 376.589 249.6 373.081C249.08 369.572 249 367.463 248.7 364.704C248.42 362.265 248.1 360.416 248.1 360.416L241.322 360.296Z" fill="#263238"/>
<path d="M252.129 330.418L239.582 330.188C239.772 338.564 241.102 352.499 241.322 360.346C241.322 361.825 241.322 371.831 241.842 374.88C242.681 379.448 248.1 378.828 248.39 376.099C248.68 373.37 248.04 361.675 248.06 360.466C248.01 355.468 250.37 342.293 251.61 333.247C251.67 332.757 252.069 330.798 252.129 330.418Z" fill="#FFBDA7"/>
<path d="M270.556 353.788C270.556 353.788 269.916 353.788 269.806 354.348C269.696 354.908 269.656 355.967 269.396 357.007C268.97 358.637 268.821 360.326 268.957 362.005C269.167 363.175 271.836 364.914 273.666 365.224C275.495 365.534 278.065 367.333 279.494 368.682C281.79 370.577 284.631 371.691 287.603 371.861C290.602 371.861 292.772 370.861 293.771 369.222C294.771 367.583 292.862 367.393 289.382 365.134L286.673 363.374C281.164 359.776 279.144 357.847 277.585 354.248L270.556 353.788Z" fill="#263238"/>
<path d="M277.624 351.829C277.534 349.23 278.854 330.138 278.854 330.138L268.066 331.357C270.626 346.571 270.826 351.759 270.536 353.978C270.482 354.183 270.458 354.396 270.466 354.608C270.466 357.607 273.815 359.166 276.465 361.135C277.465 361.915 280.134 364.314 283.233 365.364C285.233 366.053 288.942 366.363 289.412 365.094C286.253 362.675 281.934 359.516 279.414 356.747C278.174 355.408 277.714 354.408 277.624 351.829Z" fill="#FFBDA7"/>
<path d="M242.492 243.812C236.613 256.667 242.711 301.929 242.711 301.929C242.532 304.018 240.142 308.117 239.262 317.303C238.212 328.139 241.192 357.177 241.192 357.177C242.242 357.814 243.442 358.163 244.671 358.19C245.9 358.216 247.113 357.918 248.19 357.327C248.19 357.327 255.779 314.664 257.189 303.888C258.378 294.472 260.658 273.78 260.658 273.78L267.137 303.828C266.186 306.863 265.497 309.973 265.077 313.125C264.467 319.462 270.646 351.299 270.646 351.299C271.759 351.759 272.955 351.984 274.16 351.96C275.364 351.936 276.55 351.663 277.644 351.159C277.644 351.159 280.374 310.036 280.954 302.399C281.954 289.564 278.504 249.53 276.155 241.933L242.492 243.812Z" fill="#27DEBF"/>
<path opacity="0.5" d="M242.492 243.812C236.613 256.667 242.711 301.929 242.711 301.929C242.532 304.018 240.142 308.117 239.262 317.303C238.212 328.139 241.192 357.177 241.192 357.177C242.242 357.814 243.442 358.163 244.671 358.19C245.9 358.216 247.113 357.918 248.19 357.327C248.19 357.327 255.779 314.664 257.189 303.888C258.378 294.472 260.658 273.78 260.658 273.78L267.137 303.828C266.186 306.863 265.497 309.973 265.077 313.125C264.467 319.462 270.646 351.299 270.646 351.299C271.759 351.759 272.955 351.984 274.16 351.96C275.364 351.936 276.55 351.663 277.644 351.159C277.644 351.159 280.374 310.036 280.954 302.399C281.954 289.564 278.504 249.53 276.155 241.933L242.492 243.812Z" fill="black"/>
<path opacity="0.2" d="M260.639 273.78L262.548 261.845C262.548 261.845 270.627 260.176 274.296 256.727C271.765 259.694 268.454 261.893 264.738 263.075L262.588 272.271L266.348 300.09L260.639 273.78Z" fill="black"/>
<path d="M245.511 203.898L253.509 205.977V189.054C249.09 187.905 245.511 190.454 245.511 194.752V203.898Z" fill="#27DEBF"/>
<path opacity="0.6" d="M245.511 203.898L253.509 205.977V189.054C249.09 187.905 245.511 190.454 245.511 194.752V203.898Z" fill="black"/>
<path d="M261.348 191.473L258.478 191.413C249.72 191.203 242.782 183.656 242.972 174.54C242.972 164.604 250.67 156.547 260.208 156.457C269.746 156.407 277.525 164.454 277.575 174.35V175.35C277.335 184.476 270.086 191.663 261.348 191.473Z" fill="#27DEBF"/>
<path opacity="0.6" d="M261.348 191.473L258.478 191.413C249.72 191.203 242.782 183.656 242.972 174.54C242.972 164.604 250.67 156.547 260.208 156.457C269.746 156.407 277.525 164.454 277.575 174.35V175.35C277.335 184.476 270.086 191.663 261.348 191.473Z" fill="black"/>
<path d="M247.94 160.606C247.871 160.316 247.742 160.043 247.562 159.805C247.382 159.567 247.155 159.369 246.895 159.222C246.636 159.076 246.348 158.985 246.051 158.955C245.755 158.924 245.455 158.955 245.171 159.046L245.941 162.045C245.781 161.843 245.584 161.673 245.361 161.545C245.101 161.398 244.814 161.308 244.517 161.279C244.221 161.25 243.922 161.284 243.639 161.378C243.356 161.473 243.096 161.625 242.876 161.826C242.656 162.027 242.481 162.272 242.361 162.545L246.261 164.834C246.464 164.443 246.554 164.003 246.521 163.564C247.079 163.331 247.531 162.9 247.793 162.355C248.055 161.809 248.107 161.187 247.94 160.606V160.606Z" fill="#27DEBF"/>
<path opacity="0.6" d="M247.94 160.606C247.871 160.316 247.742 160.043 247.562 159.805C247.382 159.567 247.155 159.369 246.895 159.222C246.636 159.076 246.348 158.985 246.051 158.955C245.755 158.924 245.455 158.955 245.171 159.046L245.941 162.045C245.781 161.843 245.584 161.673 245.361 161.545C245.101 161.398 244.814 161.308 244.517 161.279C244.221 161.25 243.922 161.284 243.639 161.378C243.356 161.473 243.096 161.625 242.876 161.826C242.656 162.027 242.481 162.272 242.361 162.545L246.261 164.834C246.464 164.443 246.554 164.003 246.521 163.564C247.079 163.331 247.531 162.9 247.793 162.355C248.055 161.809 248.107 161.187 247.94 160.606V160.606Z" fill="black"/>
<path d="M252.67 195.931C249.978 196.297 247.307 196.81 244.672 197.471C247.771 205.068 242.912 216.803 242.912 216.803L247.501 230.927C244.332 237.415 241.722 240.634 240.643 245.921C243.562 251.619 264.168 257.057 277.585 246.671C277.585 246.671 277.155 232.247 275.446 223.84C279.835 215.274 279.125 212.755 278.225 209.766C276.135 202.819 271.916 200.15 266.887 195.252L263.888 194.932L252.67 195.931Z" fill="#37474F"/>
<path d="M248.01 236.585C250.5 234.036 255.779 233.306 255.779 233.306L250.93 230.548L245.511 217.463C247.785 213.009 248.909 208.057 248.78 203.059L245.661 202.309C246.041 209.236 242.901 216.813 242.901 216.813L247.49 230.937C244.321 237.425 241.712 240.644 240.632 245.931C242.631 249.83 252.919 253.608 263.517 252.269C249.32 251.309 245.621 239.054 248.01 236.585Z" fill="#263238"/>
<path d="M262.357 252.379L262.937 252.319C262.743 252.322 262.549 252.343 262.357 252.379V252.379Z" fill="#E6E6E6"/>
<path d="M271.135 165.314C272.855 166.893 275.004 170.312 274.834 180.308C274.684 188.804 272.055 190.913 270.725 191.523C269.396 192.133 266.846 191.783 264.357 191.363V194.882C264.357 194.882 267.636 198.52 267.436 200.88C267.236 203.239 262.757 204.188 259.527 201.879C257.252 200.157 255.233 198.12 253.529 195.832V185.146C253.529 185.146 252.069 186.635 249.529 184.396C247.53 182.537 246.77 179.398 248.36 177.699C248.768 177.296 249.269 177 249.818 176.837C250.367 176.673 250.948 176.647 251.51 176.761C252.072 176.874 252.597 177.124 253.04 177.488C253.482 177.852 253.829 178.319 254.049 178.848C257.859 178.45 261.569 177.381 265.006 175.69C266.94 174.76 268.554 173.278 269.645 171.431C270.736 169.584 271.254 167.455 271.135 165.314Z" fill="#FFBDA7"/>
<path d="M264.347 178.399C264.347 178.593 264.289 178.782 264.183 178.945C264.076 179.107 263.924 179.234 263.746 179.312C263.568 179.389 263.371 179.413 263.18 179.381C262.989 179.348 262.811 179.261 262.668 179.129C262.526 178.997 262.425 178.826 262.378 178.638C262.33 178.45 262.339 178.252 262.403 178.068C262.466 177.885 262.582 177.724 262.735 177.605C262.889 177.486 263.074 177.414 263.268 177.399C263.542 177.393 263.808 177.494 264.009 177.681C264.211 177.867 264.332 178.125 264.347 178.399V178.399Z" fill="#263238"/>
<path d="M264.737 185.476L267.407 186.345C267.364 186.528 267.285 186.699 267.173 186.85C267.062 187 266.92 187.126 266.758 187.219C266.596 187.313 266.417 187.373 266.231 187.394C266.045 187.416 265.856 187.399 265.677 187.345C265.314 187.209 265.015 186.941 264.841 186.594C264.667 186.248 264.63 185.848 264.737 185.476V185.476Z" fill="#F79776"/>
<path d="M274.005 174.57L271.575 173.74C271.614 173.578 271.685 173.426 271.786 173.293C271.887 173.161 272.015 173.051 272.161 172.971C272.307 172.891 272.468 172.842 272.634 172.828C272.8 172.815 272.968 172.836 273.125 172.891C273.453 173.013 273.724 173.252 273.886 173.562C274.049 173.872 274.091 174.231 274.005 174.57V174.57Z" fill="#263238"/>
<path d="M254.06 177.899V181.487C254.29 181.497 254.52 181.459 254.735 181.377C254.95 181.294 255.146 181.169 255.311 181.008C255.476 180.847 255.606 180.653 255.693 180.44C255.781 180.227 255.824 179.998 255.819 179.768C255.823 179.29 255.642 178.829 255.314 178.481C254.986 178.133 254.537 177.924 254.06 177.899V177.899Z" fill="#27DEBF"/>
<path opacity="0.6" d="M254.06 177.899V181.487C254.29 181.497 254.52 181.459 254.735 181.377C254.95 181.294 255.146 181.169 255.311 181.008C255.476 180.847 255.606 180.653 255.693 180.44C255.781 180.227 255.824 179.998 255.819 179.768C255.823 179.29 255.642 178.829 255.314 178.481C254.986 178.133 254.537 177.924 254.06 177.899V177.899Z" fill="black"/>
<path d="M273.125 178.048C273.147 178.336 273.054 178.621 272.867 178.84C272.679 179.059 272.413 179.195 272.125 179.218C271.905 179.24 271.683 179.195 271.489 179.089C271.294 178.984 271.135 178.823 271.033 178.627C270.931 178.43 270.889 178.208 270.914 177.988C270.939 177.768 271.03 177.561 271.173 177.393C271.317 177.225 271.508 177.103 271.721 177.044C271.935 176.985 272.161 176.991 272.371 177.062C272.58 177.132 272.764 177.264 272.899 177.44C273.033 177.616 273.112 177.828 273.125 178.048V178.048Z" fill="#263238"/>
<path d="M267.426 176.599L267.396 183.556L270.646 182.487L267.426 176.599Z" fill="#F79776"/>
<path d="M264.357 191.403C261.727 191.064 256.359 189.474 255.469 187.255C255.807 188.368 256.472 189.354 257.378 190.084C258.998 191.513 264.377 193.083 264.377 193.083L264.357 191.403Z" fill="#F79776"/>
<path d="M232.363 231.457C232.363 231.457 238.782 240.574 239.882 241.763C240.981 242.953 241.741 242.553 242.931 242.023C244.382 241.437 245.872 240.953 247.39 240.574C249.39 240.084 249.77 241.893 247.83 243.183C246.43 244.122 244.831 244.522 245.491 245.292C246.859 246.53 248.445 247.503 250.17 248.161C254.909 250.03 254.539 250.969 253.669 252.499C252.909 253.838 250.669 256.717 242.231 253.318C238.732 251.909 233.813 247.921 231.493 245.322C228.144 241.613 222.915 234.966 222.915 234.966L232.363 231.457Z" fill="#FFBDA7"/>
<path d="M245.901 197.141C243.581 197.291 239.212 197.851 233.733 206.947C228.924 214.944 221.476 225.75 220.096 229.618C219.536 231.187 221.716 234.436 224.525 237.765C228.354 237.595 231.844 234.946 233.653 232.827C233.178 231.7 232.589 230.624 231.894 229.618L243.131 216.803C243.131 216.803 247.401 212.895 248.29 207.807C249.25 202.289 248.95 197.951 245.901 197.141Z" fill="#455A64"/>
<path d="M308.818 214.394L281.114 221.691L273.485 253.039L299.83 245.392L308.818 214.394Z" fill="#27DEBF"/>
<path opacity="0.25" d="M308.818 214.394L281.114 221.691L273.485 253.039L299.83 245.392L308.818 214.394Z" fill="black"/>
<g opacity="0.1">
<path opacity="0.1" d="M296.301 236.585C296.765 237.553 297.503 238.363 298.424 238.914C299.345 239.465 300.408 239.732 301.48 239.684L301.68 238.994L296.301 236.585Z" fill="black"/>
</g>
<g opacity="0.1">
<path opacity="0.1" d="M300.47 219.372L300.7 218.313C300.83 217.733 299.201 217.703 297.071 218.313L292.982 219.312C290.852 219.872 288.983 220.792 288.893 221.371L288.673 222.431L300.47 219.372Z" fill="black"/>
</g>
<path d="M302.6 215.404C302.68 215.034 302.02 214.934 301.13 215.184L299.511 215.634C299.511 215.634 299.99 213.344 296.411 214.144C295.45 214.286 294.542 214.673 293.775 215.268C293.008 215.864 292.407 216.647 292.032 217.543L290.312 218.033C289.313 218.302 288.493 218.812 288.383 219.172L288.173 219.832L302.45 216.073L302.6 215.404Z" fill="#37474F"/>
<path d="M300.63 216.523C299.331 216.843 298.781 217.013 298.631 217.913C298.481 218.812 298.311 219.692 298.311 219.692L292.002 221.361C292.002 221.361 292.312 220.062 292.412 219.562C292.512 219.062 292.292 218.742 291.282 219.012L291.202 218.612L301.1 216.083L300.63 216.523Z" fill="#37474F"/>
<path d="M300.85 219.462L301.08 218.402C301.21 217.823 299.581 217.793 297.451 218.402L293.362 219.402C291.232 219.962 289.363 220.881 289.273 221.461L289.053 222.521L300.85 219.462Z" fill="#37474F"/>
<path d="M305.899 224.46C305.899 224.46 304.899 228.009 304.629 228.848C304.359 229.688 301.28 231.217 299.25 231.777C297.221 232.337 294.981 232.997 295.951 235.846C296.831 238.475 300.19 239.074 301.89 238.994C303.59 238.914 305.939 237.295 306.889 234.666C308.059 231.307 307.429 227.729 307.889 225.77C308.349 223.81 306.919 223.291 305.899 224.46Z" fill="#FFBDA7"/>
<path d="M200.951 225.29C197.152 221.462 195.792 222.951 195.312 227.149C195.134 228.91 194.707 230.637 194.042 232.277C193.924 231.405 193.685 230.554 193.332 229.748C193.165 229.312 192.84 228.956 192.421 228.75C192.002 228.544 191.52 228.504 191.073 228.639C190.703 228.789 191.163 229.638 191.073 231.308C191.003 233.387 190.323 234.536 190.813 236.746C190.984 237.577 190.852 238.441 190.443 239.185C188.443 242.983 181.855 250 177.236 255.058L159.689 239.215C153.69 233.817 151.751 231.388 145.962 231.778C147.773 232.464 149.441 233.481 150.881 234.776C153.57 237.045 152.931 250.03 152.931 250.03C152.931 250.03 172.847 264.305 174.926 265.664C175.226 265.864 175.536 266.044 175.836 266.214C176.819 266.726 177.947 266.891 179.035 266.683C180.124 266.474 181.111 265.904 181.835 265.064C186.084 260.206 192.283 250.64 195.832 245.672C197.455 243.267 198.902 240.748 200.161 238.135C203.72 231.068 203.33 227.689 200.951 225.29Z" fill="#914F4E"/>
<path d="M146.581 231.457C147.98 231.203 149.417 231.25 150.796 231.594C152.175 231.939 153.465 232.574 154.579 233.457C157.999 236.056 172.576 249.45 172.576 249.45C172.576 249.45 172.976 256.537 165.577 260.756L147.711 248.161L146.581 231.457Z" fill="#27DEBF"/>
<path opacity="0.3" d="M146.581 231.457C147.98 231.203 149.417 231.25 150.796 231.594C152.175 231.939 153.465 232.574 154.579 233.457C157.999 236.056 172.576 249.45 172.576 249.45C172.576 249.45 172.976 256.537 165.577 260.756L147.711 248.161L146.581 231.457Z" fill="black"/>
<path d="M129.335 391.354H121.767V404.848H129.335V391.354Z" fill="#914F4E"/>
<path d="M148.011 390.634L155.579 390.904L155.959 376.619L148.011 376.349V390.634Z" fill="#914F4E"/>
<path d="M120.697 274.51C120.697 282.037 121.807 342.623 121.807 342.623C121.637 344.782 119.687 348.78 120.107 357.097C120.677 368.403 121.447 398.081 121.447 398.081C122.747 398.746 124.181 399.108 125.641 399.137C127.101 399.166 128.549 398.863 129.875 398.251C129.875 398.251 137.034 357.117 138.393 345.922C139.573 336.145 141.583 303.239 141.583 303.239L145.682 341.503C144.808 345.617 144.492 349.83 144.742 354.028C145.102 359.206 147.531 386.185 147.531 386.185C148.84 386.96 150.309 387.425 151.825 387.546C153.341 387.668 154.864 387.441 156.28 386.885C156.28 386.885 160.579 346.251 160.669 341.503C160.769 336.086 158.149 274.41 158.149 274.41L120.697 274.51Z" fill="#37474F"/>
<path d="M129.334 400.95V399.83C130.064 400.16 131.744 406.827 134.743 409.696C137.133 411.965 140.392 414.584 141.222 417.113C142.052 419.642 136.683 421.191 134.453 420.782C131.864 420.302 127.365 418.403 126.245 416.643C125.125 414.884 124.585 412.275 123.665 410.986C122.746 409.696 120.666 408.257 120.146 406.757C119.998 405.363 120.144 403.953 120.576 402.619C120.926 401.229 121.306 399.7 121.766 399.83V400.69C122.834 401.564 124.175 402.034 125.555 402.019C126.655 402.059 129.344 401.829 129.334 400.95Z" fill="#263238"/>
<path d="M155.66 388.475C156.05 388.475 156.37 389.064 157.239 390.044C158.525 391.396 160.029 392.521 161.688 393.373C164.528 394.852 170.037 397.131 172.536 398.301C174.096 399.03 174.016 400.99 172.406 402.099C170.797 403.209 166.907 404.018 162.238 402.939C159.699 402.339 156.38 399.94 154.24 400.03C152.1 400.12 148.241 400.13 146.671 399.03C145.102 397.931 145.742 395.542 146.182 393.513C146.661 391.284 147.261 387.815 147.961 387.965V388.735C148.871 390.174 153.57 390.734 155.57 389.734L155.66 388.475Z" fill="#263238"/>
<path d="M141.582 303.259C145.521 301.973 149.122 299.821 152.12 296.961C152.12 296.961 150.12 300.96 144.042 304.618L145.331 338.794L141.582 303.259Z" fill="#263238"/>
<path d="M124.635 233.456C124.635 233.456 118.717 233.996 119.137 245.282L120.446 263.275L120.326 290.264C125.885 296.571 150.57 296.111 159.019 289.754C159.019 289.754 158.149 257.837 157.579 245.552C157.169 236.825 155.159 232.427 146.581 231.467L136.023 231.927L124.635 233.456Z" fill="#27DEBF"/>
<path opacity="0.3" d="M141.462 239.375L142.822 248.851L145.981 248.791L142.412 249.361L141.462 239.375Z" fill="black"/>
<path d="M105.849 272.201C108.919 247.511 115.987 235.216 124.596 233.797L123.986 249.59C120.401 258.013 117.655 266.769 115.787 275.73C114.658 281.807 113.348 292.373 113.688 297.561C113.756 298.475 114.145 299.336 114.788 299.99C116.487 301.719 116.997 303.219 118.137 305.168C119.037 306.697 119.956 307.237 119.717 307.607C119.407 307.996 118.959 308.249 118.466 308.312C117.973 308.376 117.475 308.245 117.077 307.947C116.175 307.308 115.35 306.567 114.618 305.738C114.508 308.091 114.932 310.439 115.857 312.605C117.857 316.763 117.537 318.953 111.958 317.723C108.459 316.963 105.959 313.275 104.959 304.668C104.696 301.456 104.64 298.231 104.79 295.012C105.169 286.785 105.239 277.139 105.849 272.201Z" fill="#914F4E"/>
<path d="M125.085 233.387C120.616 233.387 116.537 234.156 113.288 240.384C110.178 246.382 107.789 259.066 106.579 263.215C106.579 263.215 113.108 267.073 119.117 266.973L123.346 252.299C123.346 252.299 126.205 245.452 125.085 233.387Z" fill="#27DEBF"/>
<path opacity="0.3" d="M125.085 233.387C120.616 233.387 116.537 234.156 113.288 240.384C110.178 246.382 107.789 259.066 106.579 263.215C106.579 263.215 113.108 267.073 119.117 266.973L123.346 252.299C123.346 252.299 126.205 245.452 125.085 233.387Z" fill="black"/>
<path d="M134.314 207.977C134.404 210.185 135.141 212.319 136.435 214.112C137.728 215.905 139.52 217.278 141.587 218.061C143.655 218.844 145.907 219.002 148.064 218.516C150.22 218.03 152.187 216.92 153.718 215.325C155.249 213.731 156.278 211.721 156.676 209.547C157.074 207.372 156.824 205.129 155.957 203.096C155.09 201.062 153.644 199.328 151.799 198.11C149.955 196.891 147.792 196.241 145.581 196.241C142.532 196.307 139.633 197.579 137.52 199.78C135.408 201.98 134.255 204.928 134.314 207.977V207.977Z" fill="#263238"/>
<path d="M127.146 213.844C127.146 213.844 128.875 222.301 129.565 223.691C130.015 224.541 130.779 225.183 131.695 225.48L131.565 219.482L127.146 213.844Z" fill="#263238"/>
<path d="M129.315 201.729C129.315 201.729 128.035 201.469 126.755 203.469C125.625 205.228 125.376 209.186 127.145 213.835L130.395 214.224L129.315 201.729Z" fill="#263238"/>
<path d="M131.375 214.234C130.725 214.644 129.795 213.335 128.985 212.465C128.175 211.595 125.556 210.386 124.246 213.265C122.936 216.144 125.396 220.072 127.465 220.742C131.035 221.911 131.564 219.522 131.564 219.522L131.844 232.927C136.573 240.244 147.301 239.984 143.442 232.567V228.459C145.031 228.723 146.643 228.81 148.251 228.719C150.871 228.299 152.52 226.14 153.32 223.181C154.6 218.433 155.08 214.604 154 205.268C152.81 195.032 141.383 194.922 135.204 198.971C129.025 203.019 131.375 214.234 131.375 214.234Z" fill="#914F4E"/>
<path d="M131.784 229.918C132.884 232.169 134.464 234.151 136.413 235.726C138.071 236.948 139.992 237.766 142.022 238.115C140.348 239.248 138.976 240.771 138.023 242.553C136.843 245.162 128.505 237.995 128.585 232.907C128.585 232.907 129.894 227.799 131.684 227.469L131.784 229.918Z" fill="#263238"/>
<path d="M142.032 238.115C142.032 238.115 144.602 236.835 143.452 232.567V228.458L144.582 228.608C145.898 229.891 146.833 231.514 147.281 233.297C147.541 234.466 148.181 240.384 147.051 241.553C145.921 242.723 144.332 238.454 142.032 238.115Z" fill="#263238"/>
<path d="M131.374 215.384C131.044 215.384 129.794 213.235 128.985 212.465C127.855 211.395 129.314 201.729 129.314 201.729C129.02 200.895 128.965 199.995 129.156 199.131C129.347 198.267 129.776 197.474 130.394 196.841C131.944 195.072 134.523 194.842 138.923 194.162C140.679 193.946 142.422 193.629 144.141 193.213C145.958 192.533 147.705 191.683 149.36 190.674C149.881 190.336 150.505 190.195 151.12 190.274C151.404 190.37 151.658 190.538 151.856 190.763C152.054 190.987 152.19 191.26 152.25 191.553C152.35 192.139 152.35 192.737 152.25 193.323C152.806 192.806 153.544 192.53 154.303 192.556C155.062 192.582 155.78 192.908 156.299 193.463C156.79 194.047 157.11 194.756 157.223 195.512C157.336 196.267 157.237 197.038 156.939 197.741C156.3 199.139 155.255 200.313 153.94 201.11C148.411 204.848 141.882 203.809 135.683 203.109C135.39 203.043 135.085 203.064 134.803 203.169C133.804 203.609 133.624 206.617 133.454 207.487C132.954 210.386 132.474 215.364 131.374 215.384Z" fill="#263238"/>
<path d="M129.315 202.239L125.376 200.03C125.495 199.757 125.671 199.512 125.891 199.311C126.111 199.11 126.371 198.958 126.653 198.864C126.936 198.769 127.235 198.736 127.532 198.764C127.829 198.793 128.116 198.884 128.375 199.03C128.899 199.356 129.284 199.863 129.458 200.455C129.631 201.047 129.58 201.682 129.315 202.239V202.239Z" fill="#263238"/>
<path d="M143.432 228.459C143.432 228.459 137.583 227.229 135.534 226.1C134.317 225.435 133.331 224.417 132.704 223.181C133.009 224.422 133.556 225.59 134.314 226.619C135.803 228.619 143.432 230.088 143.432 230.088V228.459Z" fill="#783736"/>
<path d="M141.312 212.365C141.319 212.525 141.294 212.685 141.238 212.836C141.183 212.986 141.099 213.124 140.99 213.242C140.882 213.36 140.751 213.456 140.605 213.523C140.46 213.59 140.302 213.628 140.142 213.635C139.819 213.616 139.515 213.472 139.296 213.233C139.078 212.994 138.961 212.679 138.972 212.355C138.972 212.045 139.096 211.747 139.315 211.528C139.534 211.309 139.832 211.186 140.142 211.186C140.452 211.186 140.75 211.309 140.969 211.528C141.189 211.747 141.312 212.045 141.312 212.355V212.365Z" fill="#263238"/>
<path d="M139.302 207.287L136.793 208.726C136.612 208.37 136.572 207.959 136.679 207.574C136.786 207.19 137.034 206.859 137.373 206.647C137.54 206.554 137.724 206.497 137.914 206.479C138.105 206.461 138.297 206.483 138.478 206.543C138.659 206.603 138.826 206.701 138.968 206.829C139.11 206.957 139.224 207.113 139.302 207.287V207.287Z" fill="#263238"/>
<path d="M142.902 221.152L145.582 222.201C145.529 222.385 145.439 222.556 145.317 222.704C145.195 222.851 145.043 222.972 144.873 223.058C144.702 223.145 144.515 223.195 144.324 223.205C144.133 223.216 143.941 223.187 143.762 223.121C143.397 222.962 143.105 222.67 142.945 222.305C142.786 221.94 142.77 221.528 142.902 221.152Z" fill="#783736"/>
<path d="M153.03 208.687L150.391 207.407C150.455 207.228 150.557 207.065 150.689 206.928C150.821 206.792 150.981 206.684 151.157 206.614C151.334 206.543 151.524 206.51 151.714 206.518C151.904 206.525 152.09 206.573 152.26 206.657C152.617 206.84 152.893 207.149 153.035 207.524C153.178 207.899 153.176 208.313 153.03 208.687Z" fill="#263238"/>
<path d="M151.3 212.365C151.315 212.528 151.296 212.693 151.244 212.849C151.191 213.004 151.107 213.147 150.997 213.268C150.886 213.389 150.752 213.486 150.602 213.553C150.451 213.619 150.289 213.653 150.125 213.653C149.961 213.653 149.799 213.619 149.649 213.553C149.499 213.486 149.364 213.389 149.253 213.268C149.143 213.147 149.059 213.004 149.007 212.849C148.954 212.693 148.935 212.528 148.95 212.365C148.944 212.205 148.969 212.046 149.024 211.896C149.079 211.746 149.164 211.608 149.273 211.491C149.381 211.374 149.512 211.28 149.658 211.214C149.803 211.147 149.96 211.111 150.12 211.105C150.443 211.118 150.747 211.258 150.968 211.494C151.189 211.729 151.308 212.042 151.3 212.365V212.365Z" fill="#263238"/>
<path d="M144.651 211.465L144.781 218.872L148.991 217.903L144.651 211.465Z" fill="#783736"/>
<path d="M139.503 209.306C138.726 209.306 137.981 209.615 137.431 210.164C136.882 210.713 136.573 211.458 136.573 212.235C136.573 213.012 136.882 213.757 137.431 214.306C137.981 214.855 138.726 215.164 139.503 215.164H140.033C140.809 215.164 141.555 214.855 142.104 214.306C142.653 213.757 142.962 213.012 142.962 212.235C142.962 211.458 142.653 210.713 142.104 210.164C141.555 209.615 140.809 209.306 140.033 209.306H139.503ZM136.033 212.235C136.025 211.309 136.385 210.417 137.033 209.756C137.682 209.094 138.566 208.717 139.493 208.707H140.033C140.882 208.818 141.661 209.234 142.226 209.878C142.791 210.522 143.103 211.349 143.103 212.205C143.103 213.061 142.791 213.889 142.226 214.532C141.661 215.176 140.882 215.592 140.033 215.704H139.503C138.584 215.699 137.705 215.331 137.055 214.682C136.406 214.033 136.039 213.153 136.033 212.235V212.235Z" fill="#263238"/>
<path d="M150.031 209.306C149.254 209.306 148.509 209.615 147.959 210.164C147.41 210.713 147.101 211.458 147.101 212.235C147.101 213.012 147.41 213.757 147.959 214.306C148.509 214.855 149.254 215.164 150.031 215.164H150.561C151.338 215.164 152.083 214.855 152.632 214.306C153.181 213.757 153.49 213.012 153.49 212.235C153.49 211.458 153.181 210.713 152.632 210.164C152.083 209.615 151.338 209.306 150.561 209.306H150.031ZM146.571 212.235C146.563 211.309 146.923 210.417 147.572 209.756C148.22 209.094 149.104 208.717 150.031 208.707H150.561C151.41 208.818 152.19 209.234 152.754 209.878C153.319 210.522 153.631 211.349 153.631 212.205C153.631 213.061 153.319 213.889 152.754 214.532C152.19 215.176 151.41 215.592 150.561 215.704H150.031C149.117 215.691 148.246 215.32 147.603 214.672C146.96 214.023 146.597 213.148 146.591 212.235H146.571Z" fill="#263238"/>
<path d="M143.452 211.535C143.662 211.245 143.936 211.008 144.254 210.843C144.572 210.678 144.924 210.59 145.282 210.586C145.577 210.554 145.876 210.594 146.152 210.701C146.429 210.809 146.676 210.982 146.871 211.206L147.341 210.846C147.092 210.541 146.77 210.303 146.405 210.155C146.04 210.007 145.643 209.952 145.252 209.996C144.798 210.001 144.352 210.115 143.951 210.329C143.551 210.543 143.208 210.851 142.952 211.226L143.452 211.535Z" fill="#263238"/>
<path d="M136.353 211.515H130.395V212.105H136.353V211.515Z" fill="#263238"/>
</g>
<defs>
<clipPath id="clip0">
<rect width="450" height="450" fill="white"/>
</clipPath>
</defs>
</svg>
