<svg width="324" height="331" viewBox="0 0 324 331" fill="none" xmlns="http://www.w3.org/2000/svg">
<path d="M293.298 110.823C296.927 123.523 294.846 142.841 292.898 155.474C290.163 173.351 288.349 184.664 281.251 206.623C263.295 262.148 205.462 306.306 142.253 287.882C99.8557 275.542 67.2107 240.762 43.5307 205.169C8.84443 152.86 -16.7033 41.5167 72.2802 26.0547C120.107 17.7433 165.213 51.6691 208.891 66.7176C234.478 75.5226 256.851 70.6132 275.288 84.2475C287.348 93.1192 289.336 96.948 293.298 110.823Z" fill="#ECF2FB"/>
<path d="M303.104 75.4559C308.299 88.5754 310.882 102.583 310.708 116.693C310.628 136.704 306.426 156.929 301.37 176.726C285.214 240.816 243.857 306.626 181.622 306.053C139.865 305.626 104.245 278.184 76.8699 247.139C36.7406 201.527 26.6683 90.918 108.501 47.4135C152.526 24.027 156.315 25.0942 199.659 28.0159C225.007 29.7368 259.333 38.2483 278.65 47.2934C291.257 53.1367 297.421 61.7549 303.104 75.4559Z" stroke="#A7B1DD" stroke-miterlimit="10" stroke-dasharray="2 2"/>
<path d="M196.978 230.583C196.978 230.583 91.1445 230.183 53.8968 195.39C16.6492 160.597 1.05371 124.91 1.05371 124.91C1.05371 124.91 54.9641 120.268 91.8516 139.585C128.739 158.903 196.978 230.583 196.978 230.583Z" fill="#003300"/>
<path d="M196.977 230.583L1 124.91" stroke="white" stroke-width="0.5" stroke-miterlimit="10"/>
<path d="M45.2783 186.945L97.2009 177.5" stroke="white" stroke-miterlimit="10"/>
<path d="M102.712 218.737L144.896 202.501" stroke="white" stroke-miterlimit="10"/>
<path d="M12.4189 145.442H39.074" stroke="white" stroke-miterlimit="10"/>
<path d="M81.832 135.009L97.2007 177.5" stroke="white" stroke-miterlimit="10"/>
<path d="M31.0303 124.91L39.0748 145.442" stroke="white" stroke-miterlimit="10"/>
<path d="M76.5619 53.4035C84.4731 60.5542 89.3425 69.2925 97.9073 75.1624C102.79 78.4976 105.805 77.7105 111.382 77.6438C118.492 77.6438 128.111 79.2447 134.061 83.4204C142.986 89.6506 149.056 101.551 150.817 112.29C153.005 125.631 146.108 139.479 148.989 153.033C150.977 162.372 160.916 169.309 162.184 178.834C163.518 188.56 155.727 205.849 143.933 203.955C130.592 201.82 125.496 186.505 113.489 182.61C106.619 180.368 98.4276 181.276 91.2102 179.314C81.7515 176.753 70.9321 171.897 63.5413 165.267C49.5467 152.753 38.6472 134.129 43.8635 115.265C45.0642 110.876 47.6123 106.527 47.7057 101.844C47.8257 95.8808 44.3571 93.4661 41.4355 88.7301C37.4332 82.2998 37.4332 71.2269 39.0608 63.7026C40.3949 57.7259 43.8235 56.2718 48.9063 52.7765C48.9197 52.7765 66.4229 44.1983 76.5619 53.4035Z" fill="url(#paint0_linear)"/>
<path d="M48.9199 52.7764L153.259 201.38" stroke="white" stroke-width="0.5" stroke-miterlimit="10"/>
<path d="M131.033 81.6459L114.57 146.429" stroke="white" stroke-width="0.5" stroke-miterlimit="10"/>
<path d="M42.7168 128.606L114.571 146.429" stroke="white" stroke-width="0.5" stroke-miterlimit="10"/>
<path d="M76.563 53.4035L75.3623 90.7179" stroke="white" stroke-width="0.5" stroke-miterlimit="10"/>
<path d="M38.0615 74.0284L75.3625 90.7178" stroke="white" stroke-width="0.5" stroke-miterlimit="10"/>
<path d="M141.452 159.103L142.599 186.238" stroke="white" stroke-width="0.5" stroke-miterlimit="10"/>
<path d="M318.219 68.1584H186.731V168.148C186.73 169.086 186.913 170.015 187.271 170.882C187.629 171.748 188.155 172.536 188.818 173.199C189.481 173.862 190.269 174.388 191.135 174.746C192.002 175.104 192.931 175.287 193.869 175.285H315.898C316.836 175.287 317.766 175.104 318.633 174.746C319.501 174.388 320.289 173.863 320.953 173.2C321.617 172.537 322.144 171.749 322.504 170.883C322.863 170.016 323.048 169.087 323.048 168.148V74.8956C323.041 73.4106 322.572 71.9646 321.707 70.7576C320.842 69.5506 319.623 68.6424 318.219 68.1584V68.1584Z" fill="url(#paint1_linear)"/>
<path d="M248.714 68.652V63.5158C248.714 61.0391 247.73 58.6638 245.979 56.9124C244.227 55.1611 241.852 54.1772 239.375 54.1772H196.057C193.581 54.1772 191.205 55.1611 189.454 56.9124C187.703 58.6638 186.719 61.0391 186.719 63.5158V68.652H248.714Z" fill="#003300"/>
<path d="M311.375 87.8763H252.088V93.7062H311.375V87.8763Z" fill="url(#paint2_linear)"/>
<path d="M311.375 97.5216H252.088V103.352H311.375V97.5216Z" fill="url(#paint3_linear)"/>
<path d="M311.375 107.167H252.088V112.997H311.375V107.167Z" fill="url(#paint4_linear)"/>
<path d="M311.375 149.524H197.671V153.113H311.375V149.524Z" fill="url(#paint5_linear)"/>
<path d="M311.375 155.474H197.671V159.063H311.375V155.474Z" fill="url(#paint6_linear)"/>
<path d="M311.375 161.411H197.671V165H311.375V161.411Z" fill="url(#paint7_linear)"/>
<path d="M311.375 129.673H197.671V133.262H311.375V129.673Z" fill="url(#paint8_linear)"/>
<path d="M311.375 135.61H197.671V139.199H311.375V135.61Z" fill="url(#paint9_linear)"/>
<path d="M311.375 141.56H197.671V145.149H311.375V141.56Z" fill="url(#paint10_linear)"/>
<path d="M239.294 77.8306H196.377V120.748H239.294V77.8306Z" fill="#009900"/>
<path d="M224.859 100.603C225.917 99.2807 226.579 97.6862 226.77 96.0036C226.961 94.321 226.673 92.6187 225.939 91.0926C225.205 89.5666 224.055 88.2787 222.621 87.3774C221.188 86.4761 219.529 85.9979 217.835 85.9979C216.142 85.9979 214.483 86.4761 213.049 87.3774C211.616 88.2787 210.466 89.5666 209.732 91.0926C208.998 92.6187 208.71 94.321 208.901 96.0036C209.092 97.6862 209.754 99.2807 210.811 100.603C204.648 103.405 199.992 109.782 198.645 117.586H237.026C235.679 109.755 231.023 103.378 224.859 100.603Z" fill="#003300"/>
<path d="M252.061 128.873H116.118V232.238C116.118 234.194 116.895 236.071 118.279 237.454C119.663 238.838 121.539 239.615 123.496 239.615H249.607C250.576 239.617 251.536 239.427 252.432 239.057C253.328 238.687 254.142 238.144 254.827 237.458C255.513 236.773 256.056 235.959 256.426 235.063C256.796 234.167 256.986 233.207 256.984 232.238V135.823C256.985 134.297 256.511 132.809 255.63 131.564C254.748 130.319 253.501 129.379 252.061 128.873V128.873Z" fill="white"/>
<path d="M180.208 129.366V124.03C180.204 121.471 179.185 119.017 177.374 117.209C175.563 115.4 173.108 114.385 170.549 114.385H125.764C123.205 114.385 120.752 115.401 118.943 117.21C117.134 119.018 116.118 121.472 116.118 124.03V129.366H180.208Z" fill="url(#paint11_linear)"/>
<path d="M244.991 149.258H183.689V155.274H244.991V149.258Z" fill="url(#paint12_linear)"/>
<path d="M244.991 159.223H183.689V165.253H244.991V159.223Z" fill="url(#paint13_linear)"/>
<path d="M244.991 169.202H183.689V175.232H244.991V169.202Z" fill="url(#paint14_linear)"/>
<path d="M244.978 212.987H127.418V216.696H244.978V212.987Z" fill="url(#paint15_linear)"/>
<path d="M244.978 219.137H127.418V222.846H244.978V219.137Z" fill="url(#paint16_linear)"/>
<path d="M244.978 225.274H127.418V228.982H244.978V225.274Z" fill="url(#paint17_linear)"/>
<path d="M244.978 192.469H127.418V196.177H244.978V192.469Z" fill="url(#paint18_linear)"/>
<path d="M244.978 198.605H127.418V202.314H244.978V198.605Z" fill="url(#paint19_linear)"/>
<path d="M244.978 204.742H127.418V208.451H244.978V204.742Z" fill="url(#paint20_linear)"/>
<path d="M170.588 138.865H126.217V183.237H170.588V138.865Z" fill="#09743B"/>
<path d="M163.066 167.108C161.732 159.023 155.635 149.764 148.391 149.764C141.147 149.764 135.05 159.023 133.716 167.108H163.066Z" fill="#002E0F"/>
<path d="M154.833 167.668C155.803 166.455 156.411 164.993 156.587 163.45C156.763 161.907 156.5 160.345 155.827 158.945C155.154 157.545 154.1 156.364 152.785 155.537C151.47 154.71 149.949 154.271 148.396 154.271C146.842 154.271 145.321 154.71 144.006 155.537C142.691 156.364 141.637 157.545 140.964 158.945C140.292 160.345 140.028 161.907 140.204 163.45C140.38 164.993 140.988 166.455 141.959 167.668C136.315 170.229 132.033 176.073 130.806 183.237H165.986C164.745 176.073 160.476 170.229 154.833 167.668Z" fill="#002E0F"/>
<path d="M129.539 268.885C129.539 274.69 127.817 280.364 124.592 285.191C121.367 290.018 116.783 293.779 111.42 296.001C106.057 298.222 100.156 298.803 94.4629 297.671C88.7696 296.539 83.5399 293.743 79.4353 289.639C75.3306 285.534 72.5353 280.304 71.4028 274.611C70.2704 268.918 70.8516 263.016 73.073 257.653C75.2944 252.29 79.0563 247.706 83.8828 244.481C88.7094 241.256 94.3839 239.535 100.189 239.535C104.043 239.535 107.86 240.294 111.42 241.769C114.981 243.244 118.217 245.406 120.942 248.132C123.668 250.857 125.83 254.092 127.305 257.653C128.78 261.214 129.539 265.031 129.539 268.885V268.885Z" fill="#006600"/>
<path d="M108.955 254.61H91.4381C90.7135 254.608 89.9956 254.75 89.3255 255.026C88.6555 255.302 88.0466 255.707 87.5335 256.219C87.0205 256.731 86.6135 257.339 86.3357 258.008C86.058 258.678 85.915 259.395 85.915 260.12V277.65C85.915 278.374 86.058 279.092 86.3357 279.761C86.6135 280.431 87.0205 281.039 87.5335 281.551C88.0466 282.062 88.6555 282.468 89.3255 282.744C89.9956 283.02 90.7135 283.161 91.4381 283.16H108.955C110.417 283.16 111.82 282.58 112.855 281.547C113.891 280.514 114.474 279.112 114.478 277.65V260.12C114.474 258.657 113.891 257.256 112.855 256.223C111.82 255.19 110.417 254.61 108.955 254.61V254.61ZM110.542 257.892H111.169V262.735H106.34V257.892H110.542ZM96.1208 265.897C96.5852 265.249 97.1971 264.722 97.9058 264.358C98.6146 263.994 99.3998 263.805 100.196 263.805C100.993 263.805 101.778 263.994 102.487 264.358C103.196 264.722 103.808 265.249 104.272 265.897C104.735 266.54 105.04 267.284 105.16 268.068C105.281 268.851 105.215 269.652 104.968 270.405C104.72 271.159 104.298 271.843 103.735 272.402C103.173 272.96 102.486 273.379 101.732 273.622C100.977 273.865 100.176 273.926 99.3928 273.8C98.6099 273.675 97.8679 273.366 97.2272 272.899C96.5864 272.432 96.0652 271.82 95.706 271.113C95.3468 270.406 95.1598 269.624 95.1602 268.832C95.1731 267.795 95.5089 266.787 96.1208 265.95V265.897ZM111.69 277.596C111.69 277.953 111.618 278.305 111.48 278.633C111.342 278.961 111.139 279.258 110.885 279.507C110.63 279.756 110.328 279.951 109.996 280.081C109.665 280.211 109.311 280.274 108.955 280.265H91.4381C91.0822 280.274 90.728 280.211 90.3966 280.081C90.0651 279.951 89.7631 279.756 89.5082 279.507C89.2533 279.258 89.0508 278.961 88.9126 278.633C88.7743 278.305 88.7032 277.953 88.7033 277.596V265.897H92.959C92.5771 266.828 92.3822 267.825 92.3854 268.832C92.4687 270.847 93.3281 272.753 94.7838 274.15C96.2395 275.546 98.1789 276.326 100.196 276.326C102.214 276.326 104.153 275.546 105.609 274.15C107.065 272.753 107.924 270.847 108.007 268.832C108.006 267.824 107.807 266.827 107.42 265.897H111.69V277.596Z" fill="white"/>
<path d="M297.22 48.0405C297.22 53.8453 295.499 59.5198 292.274 64.3464C289.049 69.1729 284.465 72.9348 279.102 75.1562C273.739 77.3776 267.838 77.9589 262.145 76.8264C256.451 75.6939 251.222 72.8986 247.117 68.794C243.012 64.6893 240.217 59.4596 239.084 53.7663C237.952 48.073 238.533 42.1717 240.755 36.8087C242.976 31.4458 246.738 26.8619 251.564 23.6369C256.391 20.4119 262.066 18.6906 267.87 18.6906C275.654 18.6906 283.12 21.7828 288.624 27.287C294.128 32.7911 297.22 40.2564 297.22 48.0405Z" fill="url(#paint21_linear)"/>
<path d="M281.678 37.8747H253.676L267.67 46.5463L281.678 37.8747Z" fill="white"/>
<path d="M267.67 50.7353L250.273 39.9692V59.4069H285.066V39.9692L267.67 50.7353Z" fill="white"/>
<path d="M191.748 27.3754C191.748 32.7892 190.143 38.0815 187.135 42.583C184.128 47.0846 179.853 50.5934 174.852 52.6658C169.85 54.7381 164.347 55.281 159.037 54.2258C153.727 53.1706 148.849 50.5647 145.02 46.7375C141.191 42.9103 138.583 38.0337 137.525 32.7243C136.467 27.4149 137.007 21.911 139.077 16.9086C141.147 11.9061 144.654 7.62973 149.154 4.62008C153.654 1.61042 158.945 0.0026383 164.359 0C171.621 -8.61444e-07 178.585 2.88377 183.721 8.01728C188.857 13.1508 191.744 20.1138 191.748 27.3754V27.3754Z" fill="#136022"/>
<path d="M170.149 32.4449C169.583 32.2958 168.985 32.3364 168.445 32.5606C167.905 32.7847 167.454 33.18 167.16 33.6856C166.867 34.2859 166.827 35.1264 166.213 35.4066C165.986 35.4638 165.748 35.4707 165.518 35.4269C165.288 35.3832 165.07 35.2897 164.879 35.1531C162.784 33.9791 158.609 25.6678 158.916 23.2931C158.919 23.0518 158.976 22.8143 159.082 22.5976C159.189 22.3808 159.341 22.1901 159.529 22.0391C160.13 21.7055 160.863 22.1725 161.477 22.3059C162.061 22.3736 162.65 22.2469 163.154 21.9454C163.658 21.6439 164.049 21.1844 164.265 20.6383C164.681 19.5447 164.774 18.3545 164.532 17.2097C164.422 15.8373 163.917 14.5261 163.078 13.4342C160.517 10.5259 156.754 13.4342 155.247 15.9156C154.304 17.513 153.704 19.2896 153.486 21.1319C152.926 25.0141 159.916 38.9152 163.371 40.8096C164.976 41.7257 166.751 42.3024 168.588 42.5039C171.469 42.7574 176.072 41.49 175.258 37.6879C174.876 36.3744 174.132 35.1953 173.11 34.2859C172.318 33.4034 171.291 32.7648 170.149 32.4449V32.4449Z" fill="white"/>
<path d="M313.536 229.169C313.536 234.974 311.814 240.649 308.589 245.475C305.364 250.302 300.781 254.064 295.418 256.285C290.055 258.506 284.153 259.088 278.46 257.955C272.767 256.823 267.537 254.027 263.432 249.923C259.328 245.818 256.532 240.588 255.4 234.895C254.267 229.202 254.849 223.301 257.07 217.938C259.292 212.575 263.053 207.991 267.88 204.766C272.706 201.541 278.381 199.819 284.186 199.819C291.97 199.819 299.435 202.912 304.939 208.416C310.444 213.92 313.536 221.385 313.536 229.169Z" fill="url(#paint22_linear)"/>
<path d="M300.556 218.27C300.506 216.839 299.916 215.479 298.903 214.467C297.89 213.454 296.531 212.863 295.1 212.813H273.301C271.873 212.867 270.519 213.459 269.511 214.472C268.504 215.485 267.917 216.842 267.871 218.27V240.082C267.918 241.513 268.508 242.872 269.522 243.884C270.536 244.895 271.896 245.482 273.327 245.525H284.227V233.171H280.225V227.715H284.227V225.607C284.227 221.939 286.989 218.63 290.364 218.63H294.766V224.086H290.364C290.044 224.157 289.761 224.343 289.569 224.608C289.377 224.874 289.289 225.201 289.323 225.527V227.715H294.766V233.171H289.323V245.525H295.126C296.557 245.479 297.916 244.891 298.929 243.88C299.942 242.87 300.533 241.512 300.583 240.082L300.556 218.27Z" fill="white"/>
<path d="M219.697 301.65C219.697 307.455 217.976 313.129 214.751 317.956C211.526 322.783 206.942 326.544 201.579 328.766C196.216 330.987 190.314 331.569 184.621 330.436C178.928 329.304 173.698 326.508 169.593 322.404C165.489 318.299 162.694 313.069 161.561 307.376C160.429 301.683 161.01 295.781 163.231 290.418C165.453 285.055 169.214 280.472 174.041 277.247C178.868 274.022 184.542 272.3 190.347 272.3C198.131 272.3 205.596 275.392 211.1 280.897C216.605 286.401 219.697 293.866 219.697 301.65Z" fill="#003300"/>
<path d="M199.298 285.414H181.408C180.452 285.414 179.504 285.603 178.621 285.969C177.737 286.335 176.934 286.871 176.257 287.548C175.581 288.224 175.045 289.027 174.678 289.911C174.312 290.795 174.124 291.742 174.124 292.698V310.602C174.124 311.558 174.312 312.506 174.678 313.389C175.045 314.273 175.581 315.076 176.257 315.752C176.934 316.429 177.737 316.965 178.621 317.331C179.504 317.698 180.452 317.886 181.408 317.886H199.298C200.256 317.888 201.205 317.701 202.09 317.335C202.975 316.97 203.78 316.434 204.457 315.757C205.135 315.081 205.673 314.277 206.04 313.392C206.407 312.508 206.596 311.56 206.596 310.602V292.712C206.596 290.776 205.827 288.92 204.458 287.552C203.09 286.183 201.234 285.414 199.298 285.414V285.414ZM199.418 296.647C199.031 297.126 198.582 297.552 198.084 297.915C198.084 297.915 198.017 297.981 198.017 298.035C198.044 298.583 198.017 299.133 197.937 299.676C197.801 300.818 197.482 301.931 196.99 302.971C196.491 304.042 195.819 305.025 195.002 305.879C193.627 307.303 191.857 308.284 189.92 308.694C189.246 308.852 188.557 308.937 187.865 308.948C185.783 309.031 183.724 308.487 181.955 307.387H181.875C183.126 307.535 184.393 307.36 185.557 306.88C186.19 306.629 186.783 306.287 187.318 305.866C186.553 305.843 185.812 305.586 185.199 305.127C184.585 304.669 184.128 304.032 183.89 303.304C184.408 303.418 184.945 303.418 185.464 303.304V303.304C184.626 303.131 183.875 302.671 183.339 302.004C182.804 301.337 182.517 300.504 182.529 299.649C183.036 299.919 183.596 300.073 184.17 300.103C183.401 299.565 182.859 298.762 182.649 297.848C182.438 296.94 182.582 295.986 183.049 295.18C183.98 296.318 185.139 297.248 186.451 297.912C187.762 298.576 189.198 298.959 190.667 299.035C190.655 298.898 190.655 298.759 190.667 298.622C190.547 297.68 190.797 296.728 191.364 295.967C191.931 295.206 192.772 294.694 193.708 294.539C194.29 294.435 194.887 294.474 195.45 294.653C196.012 294.832 196.523 295.146 196.937 295.567C196.96 295.597 196.991 295.619 197.027 295.631C197.062 295.643 197.101 295.644 197.137 295.633C197.89 295.466 198.614 295.187 199.285 294.806V294.806C199.003 295.64 198.442 296.352 197.697 296.821C198.41 296.735 199.107 296.546 199.765 296.26V296.26L199.418 296.647Z" fill="white"/>
<defs>
<linearGradient id="paint0_linear" x1="104.111" y1="124.87" x2="158.288" y2="86.929" gradientUnits="userSpaceOnUse">
<stop stop-color="white"/>
<stop offset="0.75" stop-color="#006600"/>
<stop offset="0.76" stop-color="#005600"/>
<stop offset="0.77" stop-color="#003B00"/>
<stop offset="0.79" stop-color="#002500"/>
<stop offset="0.82" stop-color="#001400"/>
<stop offset="0.85" stop-color="#000900"/>
<stop offset="0.89" stop-color="#000200"/>
<stop offset="1"/>
</linearGradient>
<linearGradient id="paint1_linear" x1="186.731" y1="121.722" x2="322.995" y2="121.722" gradientUnits="userSpaceOnUse">
<stop offset="0.08" stop-color="#A7B1DD"/>
<stop offset="0.16" stop-color="#AFBADF"/>
<stop offset="0.36" stop-color="#C1CDE2"/>
<stop offset="0.56" stop-color="#CBD8E4"/>
<stop offset="0.78" stop-color="#CFDCE5"/>
</linearGradient>
<linearGradient id="paint2_linear" x1="252.088" y1="90.7979" x2="311.375" y2="90.7979" gradientUnits="userSpaceOnUse">
<stop offset="0.22" stop-color="#A7B1DD"/>
<stop offset="0.33" stop-color="#A3B0D9"/>
<stop offset="0.44" stop-color="#98ABCE"/>
<stop offset="0.55" stop-color="#86A4BB"/>
<stop offset="0.66" stop-color="#6C9AA1"/>
<stop offset="0.76" stop-color="#4B8D7E"/>
<stop offset="0.86" stop-color="#237E55"/>
<stop offset="0.92" stop-color="#09743B"/>
</linearGradient>
<linearGradient id="paint3_linear" x1="16862.4" y1="1222" x2="19497.1" y2="1222" gradientUnits="userSpaceOnUse">
<stop offset="0.22" stop-color="#A7B1DD"/>
<stop offset="0.33" stop-color="#A3B0D9"/>
<stop offset="0.44" stop-color="#98ABCE"/>
<stop offset="0.55" stop-color="#86A4BB"/>
<stop offset="0.66" stop-color="#6C9AA1"/>
<stop offset="0.76" stop-color="#4B8D7E"/>
<stop offset="0.86" stop-color="#237E55"/>
<stop offset="0.92" stop-color="#09743B"/>
</linearGradient>
<linearGradient id="paint4_linear" x1="16862.4" y1="1273.79" x2="19497.1" y2="1273.79" gradientUnits="userSpaceOnUse">
<stop offset="0.22" stop-color="#A7B1DD"/>
<stop offset="0.33" stop-color="#A3B0D9"/>
<stop offset="0.44" stop-color="#98ABCE"/>
<stop offset="0.55" stop-color="#86A4BB"/>
<stop offset="0.66" stop-color="#6C9AA1"/>
<stop offset="0.76" stop-color="#4B8D7E"/>
<stop offset="0.86" stop-color="#237E55"/>
<stop offset="0.92" stop-color="#09743B"/>
</linearGradient>
<linearGradient id="paint5_linear" x1="197.671" y1="151.325" x2="311.375" y2="151.325" gradientUnits="userSpaceOnUse">
<stop offset="0.22" stop-color="#A7B1DD"/>
<stop offset="0.33" stop-color="#A4AFD9"/>
<stop offset="0.44" stop-color="#9BAACE"/>
<stop offset="0.54" stop-color="#8BA1BB"/>
<stop offset="0.64" stop-color="#7694A1"/>
<stop offset="0.74" stop-color="#5A837E"/>
<stop offset="0.84" stop-color="#386F55"/>
<stop offset="0.92" stop-color="#195D2F"/>
</linearGradient>
<linearGradient id="paint6_linear" x1="27416.2" y1="1000.51" x2="37107.2" y2="1000.51" gradientUnits="userSpaceOnUse">
<stop offset="0.22" stop-color="#A7B1DD"/>
<stop offset="0.33" stop-color="#A4AFD9"/>
<stop offset="0.44" stop-color="#9BAACE"/>
<stop offset="0.54" stop-color="#8BA1BB"/>
<stop offset="0.64" stop-color="#7694A1"/>
<stop offset="0.74" stop-color="#5A837E"/>
<stop offset="0.84" stop-color="#386F55"/>
<stop offset="0.92" stop-color="#195D2F"/>
</linearGradient>
<linearGradient id="paint7_linear" x1="27416.2" y1="1022.45" x2="37107.2" y2="1022.45" gradientUnits="userSpaceOnUse">
<stop offset="0.22" stop-color="#A7B1DD"/>
<stop offset="0.33" stop-color="#A4AFD9"/>
<stop offset="0.44" stop-color="#9BAACE"/>
<stop offset="0.54" stop-color="#8BA1BB"/>
<stop offset="0.64" stop-color="#7694A1"/>
<stop offset="0.74" stop-color="#5A837E"/>
<stop offset="0.84" stop-color="#386F55"/>
<stop offset="0.92" stop-color="#195D2F"/>
</linearGradient>
<linearGradient id="paint8_linear" x1="27416.2" y1="905.329" x2="37107.2" y2="905.329" gradientUnits="userSpaceOnUse">
<stop offset="0.22" stop-color="#A7B1DD"/>
<stop offset="0.33" stop-color="#A4AFD9"/>
<stop offset="0.44" stop-color="#9BAACE"/>
<stop offset="0.54" stop-color="#8BA1BB"/>
<stop offset="0.64" stop-color="#7694A1"/>
<stop offset="0.74" stop-color="#5A837E"/>
<stop offset="0.84" stop-color="#386F55"/>
<stop offset="0.92" stop-color="#195D2F"/>
</linearGradient>
<linearGradient id="paint9_linear" x1="27416.2" y1="927.235" x2="37107.2" y2="927.235" gradientUnits="userSpaceOnUse">
<stop offset="0.22" stop-color="#A7B1DD"/>
<stop offset="0.33" stop-color="#A4AFD9"/>
<stop offset="0.44" stop-color="#9BAACE"/>
<stop offset="0.54" stop-color="#8BA1BB"/>
<stop offset="0.64" stop-color="#7694A1"/>
<stop offset="0.74" stop-color="#5A837E"/>
<stop offset="0.84" stop-color="#386F55"/>
<stop offset="0.92" stop-color="#195D2F"/>
</linearGradient>
<linearGradient id="paint10_linear" x1="27416.2" y1="949.159" x2="37107.2" y2="949.159" gradientUnits="userSpaceOnUse">
<stop offset="0.22" stop-color="#A7B1DD"/>
<stop offset="0.33" stop-color="#A4AFD9"/>
<stop offset="0.44" stop-color="#9BAACE"/>
<stop offset="0.54" stop-color="#8BA1BB"/>
<stop offset="0.64" stop-color="#7694A1"/>
<stop offset="0.74" stop-color="#5A837E"/>
<stop offset="0.84" stop-color="#386F55"/>
<stop offset="0.92" stop-color="#195D2F"/>
</linearGradient>
<linearGradient id="paint11_linear" x1="116.118" y1="121.895" x2="180.208" y2="121.895" gradientUnits="userSpaceOnUse">
<stop offset="0.01" stop-color="#FBBE52"/>
<stop offset="0.27" stop-color="#FABB54"/>
<stop offset="0.4" stop-color="#F9B656"/>
<stop offset="0.88" stop-color="#FC952E"/>
</linearGradient>
<linearGradient id="paint12_linear" x1="183.689" y1="152.273" x2="244.977" y2="152.273" gradientUnits="userSpaceOnUse">
<stop offset="0.08" stop-color="#A7B1DD"/>
<stop offset="0.16" stop-color="#8AA0B9"/>
<stop offset="0.26" stop-color="#678B8F"/>
<stop offset="0.36" stop-color="#4B7B6C"/>
<stop offset="0.46" stop-color="#346E51"/>
<stop offset="0.56" stop-color="#25643E"/>
<stop offset="0.67" stop-color="#1B5F33"/>
<stop offset="0.78" stop-color="#185D2F"/>
</linearGradient>
<linearGradient id="paint13_linear" x1="14215.5" y1="1601.63" x2="17031.7" y2="1601.63" gradientUnits="userSpaceOnUse">
<stop offset="0.08" stop-color="#A7B1DD"/>
<stop offset="0.16" stop-color="#8AA0B9"/>
<stop offset="0.26" stop-color="#678B8F"/>
<stop offset="0.36" stop-color="#4B7B6C"/>
<stop offset="0.46" stop-color="#346E51"/>
<stop offset="0.56" stop-color="#25643E"/>
<stop offset="0.67" stop-color="#1B5F33"/>
<stop offset="0.78" stop-color="#185D2F"/>
</linearGradient>
<linearGradient id="paint14_linear" x1="14215.5" y1="1656.7" x2="17031.7" y2="1656.7" gradientUnits="userSpaceOnUse">
<stop offset="0.08" stop-color="#A7B1DD"/>
<stop offset="0.16" stop-color="#8AA0B9"/>
<stop offset="0.26" stop-color="#678B8F"/>
<stop offset="0.36" stop-color="#4B7B6C"/>
<stop offset="0.46" stop-color="#346E51"/>
<stop offset="0.56" stop-color="#25643E"/>
<stop offset="0.67" stop-color="#1B5F33"/>
<stop offset="0.78" stop-color="#185D2F"/>
</linearGradient>
<linearGradient id="paint15_linear" x1="127.418" y1="214.841" x2="244.978" y2="214.841" gradientUnits="userSpaceOnUse">
<stop offset="0.078125" stop-color="#B9FAD5"/>
<stop offset="0.16" stop-color="#90FCAE"/>
<stop offset="0.26" stop-color="#7BFFA0"/>
<stop offset="0.364583" stop-color="#67F38F"/>
<stop offset="0.46" stop-color="#3EE07B"/>
<stop offset="0.56" stop-color="#38B95A"/>
<stop offset="0.67" stop-color="#10A42D"/>
<stop offset="0.78" stop-color="#099722"/>
</linearGradient>
<linearGradient id="paint16_linear" x1="22078.1" y1="1269.6" x2="32437.5" y2="1269.6" gradientUnits="userSpaceOnUse">
<stop offset="0.08" stop-color="#27AE60"/>
<stop offset="0.16" stop-color="#219653"/>
<stop offset="0.26" stop-color="#147918"/>
<stop offset="0.36" stop-color="#056B1C"/>
<stop offset="0.46" stop-color="#0D6029"/>
<stop offset="0.56" stop-color="#2F643D"/>
<stop offset="0.67" stop-color="#275F32"/>
<stop offset="0.78" stop-color="#245D2E"/>
</linearGradient>
<linearGradient id="paint17_linear" x1="22078.1" y1="1292.82" x2="32437.5" y2="1292.82" gradientUnits="userSpaceOnUse">
<stop offset="0.08" stop-color="#6ADB75"/>
<stop offset="0.16" stop-color="#196721"/>
<stop offset="0.26" stop-color="#056014"/>
<stop offset="0.36" stop-color="#0D521C"/>
<stop offset="0.46" stop-color="#165F31"/>
<stop offset="0.56" stop-color="#2F643D"/>
<stop offset="0.67" stop-color="#275F32"/>
<stop offset="0.78" stop-color="#245D2E"/>
</linearGradient>
<linearGradient id="paint18_linear" x1="22078.1" y1="1168.81" x2="32437.5" y2="1168.81" gradientUnits="userSpaceOnUse">
<stop offset="0.08" stop-color="#6FCF97"/>
<stop offset="0.16" stop-color="#27AE60"/>
<stop offset="0.26" stop-color="#219653"/>
<stop offset="0.36" stop-color="#034014"/>
<stop offset="0.46" stop-color="#075F28"/>
<stop offset="0.56" stop-color="#0A6823"/>
<stop offset="0.67" stop-color="#275F32"/>
<stop offset="0.78" stop-color="#245D2E"/>
</linearGradient>
<linearGradient id="paint19_linear" x1="22078.1" y1="1191.99" x2="32437.5" y2="1191.99" gradientUnits="userSpaceOnUse">
<stop offset="0.08" stop-color="#6FCF97"/>
<stop offset="0.16" stop-color="#6FCF97"/>
<stop offset="0.26" stop-color="#27AE60"/>
<stop offset="0.36" stop-color="#27AE60"/>
<stop offset="0.46" stop-color="#3E6E50"/>
<stop offset="0.56" stop-color="#2F643D"/>
<stop offset="0.67" stop-color="#275F32"/>
<stop offset="0.78" stop-color="#245D2E"/>
</linearGradient>
<linearGradient id="paint20_linear" x1="22078.1" y1="1215.24" x2="32437.5" y2="1215.24" gradientUnits="userSpaceOnUse">
<stop offset="0.08" stop-color="#36BE3B"/>
<stop offset="0.16" stop-color="#094A0C"/>
<stop offset="0.26" stop-color="#074B16"/>
<stop offset="0.36" stop-color="#0F4A15"/>
<stop offset="0.46" stop-color="#3E6E50"/>
<stop offset="0.56" stop-color="#2F643D"/>
<stop offset="0.67" stop-color="#275F32"/>
<stop offset="0.78" stop-color="#245D2E"/>
</linearGradient>
<linearGradient id="paint21_linear" x1="16464.3" y1="9947.76" x2="18290.5" y2="8122.19" gradientUnits="userSpaceOnUse">
<stop offset="0.01" stop-color="#EFA625"/>
<stop offset="0.27" stop-color="#EE9C17"/>
<stop offset="0.4" stop-color="#E4931E"/>
<stop offset="0.88" stop-color="#EF8011"/>
</linearGradient>
<linearGradient id="paint22_linear" x1="17200.9" y1="18098.5" x2="19026.4" y2="16273" gradientUnits="userSpaceOnUse">
<stop offset="0.01" stop-color="#FFB676"/>
<stop offset="0.27" stop-color="#F7A724"/>
<stop offset="0.4" stop-color="#F9A52E"/>
<stop offset="0.88" stop-color="#FB8B1B"/>
</linearGradient>
</defs>
</svg>
