<svg width="18" height="18" viewBox="0 0 18 18" fill="none" xmlns="http://www.w3.org/2000/svg">
<g clip-path="url(#clip0)">
<path d="M4.39573 5.73821C4.49035 5.6451 4.58963 5.55707 4.69332 5.47426C4.81719 5.36865 4.83436 5.18353 4.73191 5.05705C4.62946 4.93057 4.44489 4.90874 4.31594 5.00803C4.19578 5.10388 4.08083 5.20606 3.97152 5.314C3.89351 5.38925 3.8622 5.5009 3.88967 5.60568C3.91713 5.7106 3.99898 5.79259 4.1039 5.82006C4.20882 5.84752 4.32033 5.81621 4.39573 5.73821Z" fill="#1ABE84"/>
<path d="M1.93382 1.77593C2.47695 1.56156 3.07254 1.51899 3.64053 1.65371C3.46694 1.66813 3.29666 1.70947 3.13571 1.77621C2.13074 2.19712 1.83494 3.48017 1.82285 3.5351C1.78715 3.69646 1.88863 3.85645 2.04999 3.89271C2.07156 3.89751 2.09353 3.89998 2.11564 3.90012C2.25599 3.90026 2.37766 3.80303 2.40842 3.66611C2.41062 3.65595 2.65149 2.62792 3.36848 2.32909C3.68653 2.21346 4.03658 2.22266 4.34831 2.35463C3.6349 2.70468 2.62265 3.51972 2.41748 5.3672C2.39922 5.53185 2.51801 5.68017 2.68266 5.69829C2.84732 5.71656 2.99563 5.59777 3.0139 5.43311C3.21673 3.60857 4.28789 2.98703 4.83638 2.78626C4.91081 3.46095 5.18011 4.0001 5.55845 4.75636C5.77446 5.18867 6.04322 5.72631 6.33998 6.4183C7.05999 8.09837 6.98048 10.6258 6.93392 11.4225H2.15821C1.98284 9.87512 2.35431 8.31508 3.20822 7.01266C3.24543 6.95265 3.28567 6.89497 3.32563 6.83743L3.37301 6.76876C3.4333 6.68005 3.44181 6.56607 3.39512 6.46939C3.34857 6.37285 3.25409 6.30844 3.14711 6.30048C3.04013 6.29265 2.93713 6.34236 2.87671 6.43094L2.8318 6.49631C2.78676 6.56167 2.74172 6.62745 2.70313 6.68953C1.41568 8.65922 1.15901 11.1293 2.01374 13.3216C2.01635 13.3288 2.01882 13.3356 2.02212 13.3425C2.49864 14.5483 3.28512 15.6066 4.30203 16.4107C4.31343 16.4211 4.32566 16.4306 4.3387 16.4391C6.99833 18.5203 10.7342 18.5203 13.3938 16.4391C13.4067 16.4306 13.419 16.4211 13.4304 16.4107C14.4473 15.6066 15.2339 14.5483 15.7104 13.3425C15.7137 13.3356 15.716 13.3288 15.7188 13.3216C16.3315 11.7507 16.3803 10.0159 15.8568 8.41299C15.805 8.25561 15.6354 8.17006 15.4781 8.22183C15.3207 8.2736 15.235 8.44307 15.2868 8.60058C15.5063 9.2706 15.6179 9.97139 15.6168 10.6764C15.6163 10.9258 15.6022 11.1749 15.5742 11.4225H13.4856C13.5051 11.3162 13.5151 11.2083 13.5156 11.1001C13.5156 10.106 12.7097 9.30013 11.7155 9.30013C10.7214 9.30013 9.91559 10.106 9.91559 11.1001C9.91614 11.2083 9.92616 11.3162 9.94566 11.4225H8.59147C8.97393 10.3669 9.56005 9.06187 10.3512 8.18448C10.8552 7.62706 11.2832 7.20615 11.6274 6.86778C12.2313 6.27438 12.6617 5.851 12.9504 5.23509C13.4052 5.60326 14.217 6.53778 13.8204 8.32936C13.7897 8.4888 13.8915 8.64384 14.0501 8.67886C14.2087 8.71401 14.3665 8.61651 14.4059 8.45886C14.8083 6.64517 14.1144 5.54682 13.5524 4.98433C13.8897 4.96043 14.2236 5.0648 14.4872 5.27656C15.0695 5.7914 14.9649 6.84196 14.9636 6.8524C14.9462 7.01664 15.0647 7.16413 15.2288 7.1824C15.2401 7.18391 15.2512 7.18459 15.2625 7.18459C15.4152 7.18418 15.5433 7.06924 15.56 6.91749C15.5664 6.86201 15.7016 5.5519 14.8874 4.82901C14.7594 4.71571 14.6147 4.62274 14.4585 4.55325C15.0354 4.61244 15.5812 4.84398 16.0248 5.21778C16.1488 5.31858 16.3302 5.30457 16.4372 5.18565C16.544 5.06686 16.5389 4.8849 16.4256 4.77229C15.7244 4.15171 14.7878 3.86689 13.8599 3.99227C14.3091 3.69743 14.8641 3.61173 15.3812 3.75703C15.5382 3.81031 15.7085 3.72626 15.7618 3.56944C15.8151 3.41247 15.731 3.24218 15.5742 3.1889C14.8019 2.96918 13.971 3.13205 13.3386 3.62684C13.2778 3.05858 12.9943 2.53755 12.5502 2.17789C12.4699 2.10113 12.3538 2.07503 12.2484 2.10992C12.143 2.14493 12.0655 2.2353 12.0471 2.34475C12.0285 2.45433 12.072 2.56502 12.1602 2.63272C12.516 2.91328 12.7309 3.3357 12.7485 3.78861C12.5828 3.52961 12.3547 3.31662 12.085 3.16913C11.0626 2.60869 9.73143 3.12793 9.67526 3.15072C9.52571 3.21486 9.45444 3.38652 9.51473 3.53771C9.57501 3.68891 9.74503 3.76444 9.8976 3.70786C9.90872 3.70333 11.019 3.26924 11.7966 3.69523C12.0006 3.811 12.1686 3.98115 12.2817 4.18659C10.9362 3.75497 9.69147 4.67534 9.15932 5.3227C9.09121 5.40551 9.07239 5.51839 9.11002 5.61878C9.14779 5.71917 9.23609 5.79181 9.34183 5.80939C9.44757 5.82697 9.55469 5.78687 9.6228 5.70406C9.67952 5.63499 10.9727 4.09993 12.4404 4.90838C12.2004 5.4647 11.8275 5.83219 11.208 6.4411C10.8585 6.78497 10.4232 7.21275 9.90694 7.78334C8.99879 8.79106 8.35444 10.2838 7.95688 11.4238H7.53693C7.58857 10.5454 7.66025 7.97382 6.89218 6.1832C6.58896 5.47514 6.31567 4.92857 6.09609 4.4894C5.7069 3.71239 5.47564 3.24438 5.42579 2.64014C7.06837 2.35216 7.80307 4.22119 7.8348 4.30483C7.89522 4.45644 8.06564 4.53197 8.21849 4.47484C8.37134 4.41771 8.45057 4.24893 8.39674 4.09485C8.10217 3.30947 7.22108 2.03356 5.80468 2.00953C5.97922 1.85146 6.194 1.7449 6.4254 1.70178C7.294 1.55181 8.21162 2.32071 8.22096 2.32813C8.34717 2.43071 8.53215 2.41396 8.63803 2.29036C8.74377 2.16677 8.73182 1.98138 8.61097 1.87248C8.56497 1.8332 7.47307 0.910081 6.32488 1.11044C6.02207 1.16276 5.73725 1.29048 5.49665 1.48164C5.65966 1.05908 5.99955 0.72922 6.42664 0.578846C6.58058 0.517461 6.65556 0.34278 6.59404 0.188835C6.53252 0.0350279 6.35797 -0.0399532 6.20403 0.0214324C5.66735 0.218223 5.23065 0.619633 4.98936 1.13777C4.55101 0.465002 3.81754 0.0423062 3.01568 0.000146574C2.84993 -0.00026541 2.71535 0.133767 2.71494 0.299384C2.71452 0.465139 2.84842 0.59972 3.01417 0.600132C3.55099 0.629795 4.04866 0.890718 4.37825 1.31534C3.54028 0.896898 2.56168 0.864076 1.69747 1.22539C1.5975 1.26658 1.52732 1.35846 1.514 1.46585C1.50068 1.57324 1.54628 1.67939 1.6332 1.7438C1.72013 1.80821 1.83508 1.82084 1.93382 1.77676V1.77593ZM14.4756 14.4115H3.25573C3.06444 14.1267 2.89511 13.8277 2.74927 13.5172H14.9816C14.8359 13.8277 14.6667 14.1267 14.4756 14.4115ZM5.5086 16.5057H12.2228C10.1434 17.6979 7.58774 17.6979 5.50832 16.5057H5.5086ZM13.1021 15.9057H4.62929C4.29599 15.6371 3.98879 15.3378 3.71166 15.0115H14.0196C13.7425 15.3378 13.4352 15.6371 13.1019 15.9057H13.1021ZM15.2292 12.9172H2.50235C2.39812 12.6253 2.31435 12.3263 2.25187 12.0225H15.4794C15.4169 12.3263 15.3332 12.6253 15.2288 12.9172H15.2292ZM10.5156 11.1001C10.5156 10.4373 11.0528 9.90012 11.7155 9.90012C12.3783 9.90012 12.9155 10.4373 12.9155 11.1001C12.9137 11.2093 12.8974 11.3178 12.8666 11.4225H10.5645C10.5338 11.3178 10.5174 11.2093 10.5156 11.1001Z" fill="#1ABE84"/>
</g>
<defs>
<clipPath id="clip0">
<rect width="18" height="18" fill="white"/>
</clipPath>
</defs>
</svg>
