<svg width="20" height="20" viewBox="0 0 20 20" fill="none" xmlns="http://www.w3.org/2000/svg">
<g clip-path="url(#clip0)">
<path d="M3.14642 17.7172C4.21154 16.3326 6.24986 13.4068 6.24986 12.0693C6.24986 10.3552 4.86045 8.96582 3.14642 8.96582C1.43238 8.96582 0.0429688 10.3552 0.0429688 12.0693C0.0429688 13.4078 2.08129 16.3331 3.14642 17.7172ZM3.14642 10.3451C3.90814 10.3451 4.52573 10.9627 4.52573 11.7244C4.52573 12.4862 3.90814 13.1038 3.14642 13.1038C2.3847 13.1038 1.76711 12.4862 1.76711 11.7244C1.76711 10.9627 2.3847 10.3451 3.14642 10.3451Z" fill="black"/>
<path d="M17.2838 5.66861C18.0363 4.7434 19.3528 2.9445 19.3528 2.06897C19.3528 0.926387 18.4264 0 17.2838 0C16.1412 0 15.2148 0.926387 15.2148 2.06897C15.2148 2.94383 16.531 4.7434 17.2838 5.66861ZM17.2838 0.689655C17.8551 0.689655 18.3183 1.15285 18.3183 1.72414C18.3183 2.29543 17.8551 2.75862 17.2838 2.75862C16.7125 2.75862 16.2493 2.29543 16.2493 1.72414C16.2493 1.15285 16.7125 0.689655 17.2838 0.689655Z" fill="black"/>
<path d="M16.9396 7.93087H17.2844C17.4748 7.93087 17.6292 7.77647 17.6292 7.58604C17.6292 7.39561 17.4748 7.24121 17.2844 7.24121H16.9396C16.7491 7.24121 16.5947 7.39561 16.5947 7.58604C16.5947 7.77647 16.7491 7.93087 16.9396 7.93087Z" fill="#1ABE84"/>
<path d="M12.4569 9.99971H13.1541C13.3446 9.99971 13.499 9.84532 13.499 9.65489C13.499 9.46446 13.3446 9.31006 13.1541 9.31006H12.4513C12.3603 9.31023 12.2729 9.34676 12.2087 9.41142C12.1446 9.47607 12.1087 9.5638 12.1094 9.65489C12.1106 9.84582 12.266 9.99988 12.4569 9.99971V9.99971Z" fill="#1ABE84"/>
<path d="M16.3223 9.65489C16.3223 9.84532 16.4767 9.99971 16.6671 9.99971H17.3695C17.56 9.99971 17.7144 9.84532 17.7144 9.65489C17.7144 9.46446 17.56 9.31006 17.3695 9.31006H16.6671C16.4767 9.31006 16.3223 9.46446 16.3223 9.65489Z" fill="#1ABE84"/>
<path d="M14.8312 7.93087H15.5338C15.7242 7.93087 15.8786 7.77647 15.8786 7.58604C15.8786 7.39561 15.7242 7.24121 15.5338 7.24121H14.8312C14.6406 7.24121 14.4863 7.39561 14.4863 7.58604C14.4863 7.77647 14.6406 7.93087 14.8312 7.93087Z" fill="#1ABE84"/>
<path d="M5.63453 19.3101H4.93174C4.74131 19.3101 4.58691 19.4645 4.58691 19.6549C4.58691 19.8453 4.74131 19.9997 4.93174 19.9997H5.63453C5.82496 19.9997 5.97936 19.8453 5.97936 19.6549C5.97936 19.4645 5.82496 19.3101 5.63453 19.3101Z" fill="#1ABE84"/>
<path d="M11.4447 9.17897C11.4688 9.17897 11.4927 9.17644 11.5161 9.17139C11.7023 9.13216 11.8215 8.94965 11.7827 8.76343C11.7729 8.71628 11.768 8.66846 11.7678 8.62031C11.7677 8.5112 11.7934 8.40378 11.8429 8.30646C11.9293 8.13674 11.8618 7.92914 11.6919 7.84276C11.5222 7.75639 11.3146 7.82391 11.2282 7.99379C11.0852 8.27447 11.0428 8.59589 11.1078 8.90419C11.141 9.0638 11.2816 9.17863 11.4447 9.17897V9.17897Z" fill="#1ABE84"/>
<path d="M14.5606 9.99971H15.2634C15.4539 9.99971 15.6083 9.84532 15.6083 9.65489C15.6083 9.46446 15.4539 9.31006 15.2634 9.31006H14.5606C14.3702 9.31006 14.2158 9.46446 14.2158 9.65489C14.2158 9.84532 14.3702 9.99971 14.5606 9.99971Z" fill="#1ABE84"/>
<path d="M12.7237 7.93087H13.4265C13.6169 7.93087 13.7713 7.77647 13.7713 7.58604C13.7713 7.39561 13.6169 7.24121 13.4265 7.24121H12.7237C12.5333 7.24121 12.3789 7.39561 12.3789 7.58604C12.3789 7.77647 12.5333 7.93087 12.7237 7.93087Z" fill="#1ABE84"/>
<path d="M9.31617 13.9228C9.34344 13.9299 9.37173 13.9333 9.39985 13.9333C9.55812 13.9329 9.69585 13.8252 9.73407 13.6718C9.77869 13.4945 9.86271 13.3295 9.97989 13.1891C10.0627 13.0951 10.088 12.9638 10.0462 12.8459C10.0045 12.7279 9.90194 12.6419 9.77852 12.621C9.65527 12.6003 9.53017 12.6479 9.45204 12.7456C9.26734 12.966 9.135 13.2253 9.06512 13.5043C9.04273 13.593 9.05671 13.6871 9.10385 13.7656C9.15083 13.8442 9.22727 13.9008 9.31617 13.9228V13.9228Z" fill="#1ABE84"/>
<path d="M16.1283 19.2959C16.0542 19.3056 15.9796 19.3105 15.9049 19.3103H15.4708C15.2802 19.3103 15.126 19.4647 15.126 19.6552C15.126 19.8456 15.2802 20 15.4708 20H15.9049C16.0086 20 16.1123 19.9933 16.2152 19.98C16.4041 19.9555 16.5375 19.7826 16.5132 19.5937C16.4888 19.4048 16.3159 19.2714 16.127 19.2959H16.1283Z" fill="#1ABE84"/>
<path d="M16.6088 15.2757C16.3806 15.2067 16.1434 15.1719 15.905 15.1724H15.8146C15.6241 15.1724 15.4697 15.3268 15.4697 15.5172C15.4697 15.7076 15.6241 15.862 15.8146 15.862H15.905C16.0754 15.862 16.2449 15.8871 16.4081 15.9364C16.4406 15.9465 16.4744 15.9516 16.5084 15.9516C16.6793 15.9518 16.8246 15.8267 16.8499 15.6576C16.875 15.4884 16.7724 15.3264 16.6088 15.2769V15.2757Z" fill="#1ABE84"/>
<path d="M15.8735 12.7585C16.0639 12.7585 16.2183 12.6041 16.2183 12.4137C16.2183 12.2232 16.0639 12.0688 15.8735 12.0688H15.171C14.9806 12.0688 14.8262 12.2232 14.8262 12.4137C14.8262 12.6041 14.9806 12.7585 15.171 12.7585H15.8735Z" fill="#1ABE84"/>
<path d="M17.9336 18.1203C17.7601 18.0422 17.5561 18.1193 17.4778 18.2928C17.3975 18.4711 17.2872 18.6344 17.152 18.7756C17.0634 18.864 17.0297 18.9934 17.0639 19.1136C17.0981 19.234 17.1947 19.3264 17.3163 19.355C17.438 19.3838 17.5658 19.3444 17.6502 19.2521C17.8398 19.0545 17.9943 18.8257 18.1068 18.576C18.1846 18.4024 18.1071 18.1985 17.9336 18.1203V18.1203Z" fill="#1ABE84"/>
<path d="M19.7401 11.0952C19.6524 11.0693 19.5579 11.0792 19.4774 11.123C19.3971 11.1668 19.3374 11.2407 19.3114 11.3284C19.2607 11.4975 19.1681 11.651 19.0422 11.7746C18.906 11.9079 18.9036 12.1263 19.037 12.2625C19.1703 12.3987 19.3887 12.4009 19.5249 12.2678C19.735 12.0618 19.8893 11.8059 19.9731 11.5239C19.9992 11.4362 19.9891 11.3417 19.9455 11.2612C19.9017 11.1809 19.8278 11.1211 19.7401 11.0952V11.0952Z" fill="#1ABE84"/>
<path d="M19.3462 10.4588C19.4824 10.459 19.6058 10.3788 19.6614 10.2546C19.7168 10.1303 19.6941 9.98499 19.6032 9.88363C19.4063 9.66474 19.1571 9.49957 18.879 9.4036C18.6988 9.34163 18.5027 9.43761 18.4407 9.61777C18.3787 9.79793 18.4747 9.99408 18.6549 10.056C18.8219 10.1135 18.9714 10.2126 19.0893 10.3443C19.1548 10.4172 19.2482 10.4588 19.3462 10.4588Z" fill="#1ABE84"/>
<path d="M14.4096 15.1724H13.7071C13.5167 15.1724 13.3623 15.3268 13.3623 15.5172C13.3623 15.7076 13.5167 15.862 13.7071 15.862H14.4096C14.6 15.862 14.7544 15.7076 14.7544 15.5172C14.7544 15.3268 14.6 15.1724 14.4096 15.1724Z" fill="#1ABE84"/>
<path d="M17.9812 12.0688H17.2784C17.088 12.0688 16.9336 12.2232 16.9336 12.4137C16.9336 12.6041 17.088 12.7585 17.2784 12.7585H17.9812C18.1716 12.7585 18.326 12.6041 18.326 12.4137C18.326 12.2232 18.1716 12.0688 17.9812 12.0688Z" fill="#1ABE84"/>
<path d="M7.74162 19.3101H7.03916C6.84873 19.3101 6.69434 19.4645 6.69434 19.6549C6.69434 19.8453 6.84873 19.9997 7.03916 19.9997H7.74162C7.93205 19.9997 8.08644 19.8453 8.08644 19.6549C8.08644 19.4645 7.93205 19.3101 7.74162 19.3101Z" fill="#1ABE84"/>
<path d="M17.903 16.2306C17.7954 16.0731 17.5805 16.0327 17.4229 16.1403C17.2655 16.2479 17.2251 16.4628 17.3327 16.6204C17.4428 16.7817 17.5245 16.9606 17.574 17.1496C17.6009 17.273 17.6932 17.3718 17.8146 17.4072C17.9358 17.4425 18.0666 17.4087 18.1557 17.3189C18.2446 17.2294 18.2774 17.0982 18.2412 16.9771C18.1722 16.7108 18.0579 16.4582 17.903 16.2306V16.2306Z" fill="#1ABE84"/>
<path d="M10.372 15.0488C10.2082 14.9671 10.0649 14.8499 9.95225 14.7056C9.8354 14.5551 9.61871 14.528 9.46835 14.6448C9.31782 14.7615 9.29072 14.9782 9.4074 15.1287C9.58402 15.3554 9.8093 15.5394 10.0667 15.667C10.2366 15.7463 10.4389 15.6753 10.5219 15.5071C10.6049 15.339 10.5382 15.1353 10.372 15.0488V15.0488Z" fill="#1ABE84"/>
<path d="M9.85005 19.3101H9.14659C8.95616 19.3101 8.80176 19.4645 8.80176 19.6549C8.80176 19.8453 8.95616 19.9997 9.14659 19.9997H9.85005C10.0405 19.9997 10.1949 19.8453 10.1949 19.6549C10.1949 19.4645 10.0405 19.3101 9.85005 19.3101Z" fill="#1ABE84"/>
<path d="M14.0658 19.3101H13.3634C13.173 19.3101 13.0186 19.4645 13.0186 19.6549C13.0186 19.8453 13.173 19.9997 13.3634 19.9997H14.0658C14.2563 19.9997 14.4107 19.8453 14.4107 19.6549C14.4107 19.4645 14.2563 19.3101 14.0658 19.3101Z" fill="#1ABE84"/>
<path d="M11.6576 12.7585C11.8481 12.7585 12.0025 12.6041 12.0025 12.4137C12.0025 12.2232 11.8481 12.0688 11.6576 12.0688H10.9552C10.7647 12.0688 10.6104 12.2232 10.6104 12.4137C10.6104 12.6041 10.7647 12.7585 10.9552 12.7585H11.6576Z" fill="#1ABE84"/>
<path d="M13.7677 12.7585C13.9581 12.7585 14.1125 12.6041 14.1125 12.4137C14.1125 12.2232 13.9581 12.0688 13.7677 12.0688H13.0636C12.8731 12.0688 12.7188 12.2232 12.7188 12.4137C12.7188 12.6041 12.8731 12.7585 13.0636 12.7585H13.7677Z" fill="#1ABE84"/>
<path d="M12.3023 15.1724H11.5997C11.4093 15.1724 11.2549 15.3268 11.2549 15.5172C11.2549 15.7076 11.4093 15.862 11.5997 15.862H12.3023C12.4929 15.862 12.6472 15.7076 12.6472 15.5172C12.6472 15.3268 12.4929 15.1724 12.3023 15.1724Z" fill="#1ABE84"/>
<path d="M11.9588 19.3101H11.256C11.0655 19.3101 10.9111 19.4645 10.9111 19.6549C10.9111 19.8453 11.0655 19.9997 11.256 19.9997H11.9588C12.1492 19.9997 12.3036 19.8453 12.3036 19.6549C12.3036 19.4645 12.1492 19.3101 11.9588 19.3101Z" fill="#1ABE84"/>
<path d="M3.49141 19.3101H3.14659C2.95616 19.3101 2.80176 19.4645 2.80176 19.6549C2.80176 19.8453 2.95616 19.9997 3.14659 19.9997H3.49141C3.68184 19.9997 3.83624 19.8453 3.83624 19.6549C3.83624 19.4645 3.68184 19.3101 3.49141 19.3101Z" fill="#1ABE84"/>
</g>
<defs>
<clipPath id="clip0">
<rect width="20" height="20" fill="white"/>
</clipPath>
</defs>
</svg>
