<svg width="18" height="18" viewBox="0 0 18 18" fill="none" xmlns="http://www.w3.org/2000/svg">
<g clip-path="url(#clip0)">
<path d="M14.7857 17.0354V4.82114C14.7857 4.64362 14.6418 4.49971 14.4643 4.49971C14.2868 4.49971 14.1429 4.64362 14.1429 4.82114V7.07114H13.2011C12.8782 7.07154 12.5766 6.91035 12.3975 6.64171L10.8785 4.3631C10.5676 3.89617 9.96745 3.71817 9.45228 3.9401C8.91678 4.17185 8.82293 4.61028 8.68086 5.02525C8.67539 5.06575 8.77728 4.73596 7.45332 8.65578C7.31078 9.14958 7.41058 9.68172 7.72236 10.0903L10.1884 12.8517C10.4573 13.192 10.6047 13.6124 10.6072 14.0461V16.0711C10.6067 16.2502 10.6809 16.4214 10.812 16.5434C10.943 16.6654 11.119 16.7272 11.2976 16.714C11.6454 16.6685 11.9024 16.3674 11.8929 16.0168V12.8247C11.8935 12.5101 11.7783 12.2064 11.5692 11.9713L9.64964 9.81099C9.41904 9.55348 9.34531 9.19159 9.45678 8.86439L10.1922 6.65842L9.70236 5.97217C9.63025 5.87905 9.61486 5.75394 9.66223 5.64611C9.7096 5.53828 9.81215 5.465 9.92951 5.4551C10.0469 5.44521 10.1602 5.5003 10.225 5.59867L11.4464 7.31028C11.6281 7.5639 11.921 7.71424 12.233 7.71399H14.1429V17.0354C14.1429 17.2129 14.2868 17.3568 14.4643 17.3568C14.6418 17.3568 14.7857 17.2129 14.7857 17.0354V17.0354Z" fill="#FB8F1D"/>
<path d="M11.5714 2.57143C12.2814 2.57143 12.8571 1.99579 12.8571 1.28571C12.8571 0.575634 12.2814 0 11.5714 0C10.8613 0 10.2856 0.575634 10.2856 1.28571C10.2856 1.99579 10.8613 2.57143 11.5714 2.57143Z" fill="#FB8F1D"/>
<path d="M8.19102 4.47763C8.23347 4.33867 8.29284 4.20545 8.36781 4.08099L8.52852 3.61395C8.58591 3.44713 8.49812 3.26523 8.33181 3.20638L6.50899 2.57317C6.34071 2.51664 6.15819 2.60547 6.09885 2.77277L5.7832 3.68338C8.45395 4.60909 8.17334 4.53002 8.19102 4.47763V4.47763Z" fill="#FB8F1D"/>
<path d="M17.6786 17.3569H0.322071L0 18.0004H18L17.6786 17.3569Z" fill="#FB8F1D"/>
<path d="M7.97272 5.12319L5.57358 4.29102L5.15283 5.50537L7.5613 6.3398L7.97272 5.12319Z" fill="#FB8F1D"/>
<path d="M6.72895 12.6001L4.50049 15.6659C4.38867 15.8079 4.34135 15.9901 4.36999 16.1686C4.39863 16.347 4.50061 16.5053 4.65124 16.6051C4.95475 16.7789 5.34024 16.6982 5.54867 16.4174L8.13874 13.0627C8.26409 12.9003 8.24609 12.8785 8.42609 11.8383C7.02081 10.2633 7.26574 10.5449 7.19149 10.4414C6.95524 12.0961 6.98127 12.2594 6.72895 12.6001V12.6001Z" fill="#FB8F1D"/>
<path d="M4.13691 8.55518L6.2262 9.27807C6.30675 9.30663 6.39536 9.30194 6.47245 9.26503C6.54953 9.22811 6.60874 9.16202 6.63699 9.08136C6.77038 8.69564 7.2252 7.33632 7.35602 6.949L4.94338 6.11328L4.62838 7.02293C4.58783 7.13495 4.61591 7.26033 4.70038 7.34435C4.78877 7.36782 4.46509 7.2386 5.92952 7.84128C6.07159 7.89964 6.15252 8.05035 6.1227 8.20101C6.09288 8.35168 5.96064 8.46019 5.80706 8.46003C5.72188 8.46003 5.78616 8.47771 4.75824 8.05471C4.64991 8.0666 4.61295 8.0396 4.31209 7.93514C4.22576 7.90679 4.13154 7.91558 4.05194 7.9594C3.97234 8.00322 3.91452 8.07814 3.89231 8.16625C3.86573 8.33869 3.96998 8.50444 4.13691 8.55518V8.55518Z" fill="#FB8F1D"/>
</g>
<defs>
<clipPath id="clip0">
<rect width="18" height="18" fill="white"/>
</clipPath>
</defs>
</svg>
