<svg width="18" height="18" viewBox="0 0 18 18" fill="none" xmlns="http://www.w3.org/2000/svg">
<path d="M14.8125 16.125H11.4375C10.9196 16.125 10.5 15.7054 10.5 15.1875V11.8125C10.5 11.3981 10.1644 11.0625 9.75 11.0625H8.25C7.83562 11.0625 7.5 11.3981 7.5 11.8125V15.1875C7.5 15.7054 7.08038 16.125 6.5625 16.125H3.1875C2.66962 16.125 2.25 15.7054 2.25 15.1875V8.02988C2.25 7.16775 2.64525 6.35325 3.32213 5.82L8.65162 1.62038C8.856 1.45988 9.144 1.45988 9.348 1.62038L14.6782 5.82C15.3551 6.35325 15.75 7.16737 15.75 8.02912V15.1875C15.75 15.7054 15.3304 16.125 14.8125 16.125Z" fill="#FB8F1D"/>
</svg>
