<svg width="18" height="18" viewBox="0 0 18 18" fill="none" xmlns="http://www.w3.org/2000/svg">
<g clip-path="url(#clip0)">
<path d="M10.2041 11.3934C10.2041 13.0491 11.5464 14.3914 13.2021 14.3914C14.8577 14.3914 16.2 13.0491 16.2 11.3934C16.2 9.73776 14.8577 8.39551 13.2021 8.39551C11.5471 8.39732 10.2059 9.73848 10.2041 11.3934ZM13.2021 8.99503C14.5267 8.99503 15.6004 10.0688 15.6004 11.3934C15.6004 12.718 14.5267 13.7917 13.2021 13.7917C11.8775 13.7917 10.8037 12.718 10.8037 11.3934C10.8052 10.0695 11.8781 8.99648 13.2021 8.99503Z" fill="#FB8F1D"/>
<path d="M11.4893 17.3896H14.9156V17.9892H11.4893V17.3896Z" fill="#FB8F1D"/>
<path d="M10.2041 16.1899H16.2001V16.7896H10.2041V16.1899Z" fill="#FB8F1D"/>
<path d="M3.6084 16.1899H4.20805V16.7896H3.6084V16.1899Z" fill="#FB8F1D"/>
<path d="M1.81055 16.7896H2.41007V17.3892H1.81055V16.7896Z" fill="#FB8F1D"/>
<path d="M3.63855 14.5032C5.20395 11.7768 6.18614 8.75501 6.52286 5.6293L9.31101 8.40088C9.36676 8.45639 9.44211 8.48772 9.52085 8.48808C9.53705 8.4882 9.55338 8.48687 9.56935 8.48421C9.66441 8.46873 9.74617 8.4085 9.7891 8.32238C10.3543 7.19433 10.133 5.83103 9.23989 4.93979L8.99474 4.69451H11.1034C11.269 4.69463 11.4034 4.5605 11.4034 4.39493C11.4035 4.36252 11.3982 4.33034 11.388 4.29975C10.9898 3.10239 9.86941 2.29496 8.60759 2.29617H8.2179L9.71509 0.790278C9.83192 0.672961 9.83143 0.483198 9.71412 0.366365C9.69138 0.343748 9.66526 0.324881 9.63659 0.310609C8.50805 -0.255173 7.14403 -0.0339638 6.25218 0.85958L5.9659 1.14586C5.87253 1.23983 5.78582 1.33997 5.70599 1.44568C5.62714 1.33997 5.54102 1.23983 5.44838 1.14586L5.1621 0.85958C4.27098 -0.033359 2.90768 -0.254568 1.77987 0.310609C1.63171 0.384628 1.5716 0.564715 1.64562 0.712752C1.65989 0.741416 1.67876 0.76754 1.70137 0.790278L3.20025 2.29617H2.80669C1.54487 2.29496 0.424314 3.10239 0.0262834 4.29975C-0.0262069 4.45673 0.0585757 4.62654 0.215684 4.67903C0.246283 4.68931 0.278454 4.69451 0.310867 4.69451H2.41749L2.17234 4.93979C1.27928 5.83103 1.05795 7.19433 1.623 8.32238C1.66606 8.4085 1.74782 8.46873 1.84276 8.48421C1.85885 8.48687 1.87505 8.4882 1.89138 8.48808C1.9706 8.48808 2.04655 8.45675 2.10267 8.40088L4.699 5.81991C4.37753 8.69272 3.29555 11.4278 1.56459 13.7429C1.1616 13.6371 0.753043 13.5537 0.340862 13.4935L0.153518 13.4747L0.0935289 14.0715L0.268295 14.0886C0.568118 14.1315 0.866006 14.1921 1.16232 14.2607C1.10233 14.3359 1.04234 14.4123 0.980299 14.4865L1.44013 14.8711C3.74402 12.1319 5.11747 8.7313 5.36214 5.16039L5.7072 4.81751L5.96554 5.0744C5.65036 8.89325 4.33955 12.5628 2.16387 15.7171L2.65491 16.0607C2.89063 15.7242 3.11547 15.3751 3.33341 15.0192C4.73577 15.69 5.97401 16.6601 6.96092 17.8612L7.42462 17.4813C6.84106 16.7719 6.17248 16.1368 5.43374 15.5906H17.9987V14.9909H4.54552C4.25163 14.8135 3.9483 14.6528 3.63855 14.5032ZM9.41079 7.65404L6.24323 4.50475C7.05344 4.26286 7.93102 4.48237 8.53188 5.0773L8.81815 5.3637C9.41792 5.96238 9.64482 6.8396 9.41079 7.65404ZM10.646 4.09499H8.16372C7.5856 3.81983 6.93334 3.74195 6.30673 3.87341C6.74298 3.25998 7.44906 2.89569 8.20182 2.89581H8.6065C9.45396 2.89448 10.2351 3.35383 10.646 4.09499ZM6.38885 1.56977L6.67525 1.28349C7.27441 0.683604 8.15199 0.45659 8.9668 0.69074L7.18963 2.47843C6.61284 2.69069 6.11769 3.07941 5.77433 3.58919C5.63488 2.85578 5.86491 2.1006 6.38982 1.56977H6.38885ZM4.73734 1.28349L5.02362 1.56977C5.15714 1.70608 5.27301 1.85871 5.36843 2.02392C5.23261 2.33971 5.15509 2.67727 5.13936 3.02051C4.87026 2.78539 4.56028 2.6018 4.22502 2.47843L2.44749 0.69074C3.26205 0.456711 4.13939 0.683725 4.73819 1.28349H4.73734ZM2.80573 2.89581H3.21053C3.96378 2.89509 4.67082 3.25925 5.10755 3.87305C4.4813 3.74207 3.82929 3.81996 3.25153 4.09499H0.768282C1.17901 3.3542 1.95959 2.89497 2.80669 2.89581H2.80573ZM2.0035 7.65404C1.76947 6.8396 1.99648 5.96238 2.59625 5.3637L2.88253 5.0773C3.31382 4.6471 3.89871 4.4063 4.50803 4.40823C4.73287 4.40835 4.95649 4.4404 5.17238 4.50354L2.0035 7.65404Z" fill="#FB8F1D"/>
</g>
<defs>
<clipPath id="clip0">
<rect width="18" height="18" fill="white"/>
</clipPath>
</defs>
</svg>
